<?xml version="1.0" encoding="utf-8"?>
<!-- Generator: Adobe Illustrator 18.1.1, SVG Export Plug-In . SVG Version: 6.00 Build 0)  -->
<!DOCTYPE svg PUBLIC "-//W3C//DTD SVG 1.1//EN" "http://www.w3.org/Graphics/SVG/1.1/DTD/svg11.dtd">
<svg version="1.1" id="Layer_1" xmlns="http://www.w3.org/2000/svg" xmlns:xlink="http://www.w3.org/1999/xlink" x="0px" y="0px"
	 viewBox="0 0 500 500" enable-background="new 0 0 500 500" xml:space="preserve">
<rect fill="#E6E6E6" width="500" height="500"/>
<g>
	<path fill="#4D4D4D" d="M136,234.8v27h-3.5v-27H136z"/>
	<path fill="#4D4D4D" d="M142.3,247.6c0-2,0-3.6-0.2-5.2h3.1l0.2,3.1h0.1c1.1-1.8,2.9-3.6,6.1-3.6c2.6,0,4.6,1.6,5.5,3.9h0.1
		c0.6-1.1,1.4-1.9,2.2-2.5c1.2-0.9,2.4-1.4,4.3-1.4c2.6,0,6.4,1.7,6.4,8.4v11.4h-3.4v-11c0-3.7-1.4-6-4.2-6c-2,0-3.6,1.5-4.2,3.2
		c-0.2,0.5-0.3,1.1-0.3,1.8v12h-3.4v-11.6c0-3.1-1.4-5.3-4-5.3c-2.2,0-3.8,1.8-4.4,3.5c-0.2,0.5-0.3,1.1-0.3,1.7v11.7h-3.4V247.6z"
		/>
	<path fill="#4D4D4D" d="M186.4,261.7l-0.3-2.4H186c-1.1,1.5-3.2,2.9-5.9,2.9c-3.9,0-5.9-2.8-5.9-5.6c0-4.7,4.2-7.2,11.6-7.2V249
		c0-1.6-0.4-4.5-4.4-4.5c-1.8,0-3.7,0.6-5,1.4l-0.8-2.3c1.6-1,3.9-1.7,6.4-1.7c5.9,0,7.4,4,7.4,7.9v7.2c0,1.7,0.1,3.3,0.3,4.6H186.4
		z M185.9,251.9c-3.8-0.1-8.2,0.6-8.2,4.4c0,2.3,1.5,3.4,3.3,3.4c2.5,0,4.1-1.6,4.7-3.2c0.1-0.4,0.2-0.8,0.2-1.1V251.9z"/>
	<path fill="#4D4D4D" d="M211.7,242.4c-0.1,1.4-0.2,3-0.2,5.3v11.2c0,4.4-0.9,7.2-2.8,8.8c-1.9,1.8-4.6,2.3-7,2.3
		c-2.3,0-4.9-0.6-6.4-1.6l0.9-2.7c1.3,0.8,3.3,1.5,5.7,1.5c3.6,0,6.2-1.9,6.2-6.8v-2.2H208c-1.1,1.8-3.2,3.2-6.2,3.2
		c-4.8,0-8.2-4.1-8.2-9.4c0-6.6,4.3-10.3,8.7-10.3c3.4,0,5.2,1.8,6,3.4h0.1l0.2-2.9H211.7z M208,250c0-0.6,0-1.1-0.2-1.6
		c-0.6-2-2.4-3.7-4.9-3.7c-3.4,0-5.8,2.8-5.8,7.3c0,3.8,1.9,7,5.7,7c2.2,0,4.1-1.4,4.9-3.6c0.2-0.6,0.3-1.3,0.3-1.9V250z"/>
	<path fill="#4D4D4D" d="M219.3,252.7c0.1,4.8,3.1,6.7,6.6,6.7c2.5,0,4-0.4,5.4-1l0.6,2.5c-1.2,0.6-3.4,1.2-6.4,1.2
		c-6,0-9.5-3.9-9.5-9.8c0-5.8,3.4-10.4,9.1-10.4c6.3,0,8,5.6,8,9.1c0,0.7-0.1,1.3-0.1,1.6H219.3z M229.6,250.2
		c0-2.2-0.9-5.7-4.9-5.7c-3.6,0-5.1,3.3-5.4,5.7H229.6z"/>
	<path fill="#4D4D4D" d="M268.7,249.9c-0.2-3.8-0.4-8.3-0.4-11.6h-0.1c-0.9,3.2-2,6.5-3.4,10.2l-4.8,13.1h-2.6l-4.4-12.8
		c-1.3-3.8-2.4-7.3-3.1-10.5h-0.1c-0.1,3.4-0.3,7.9-0.5,11.9l-0.7,11.6h-3.3l1.9-27h4.4l4.6,13c1.1,3.3,2,6.3,2.7,9.1h0.1
		c0.7-2.7,1.6-5.7,2.8-9.1l4.8-13h4.4l1.7,27h-3.4L268.7,249.9z"/>
	<path fill="#4D4D4D" d="M282.4,236.9c0,1.2-0.8,2.2-2.2,2.2c-1.2,0-2.1-1-2.1-2.2c0-1.2,0.9-2.2,2.2-2.2
		C281.6,234.7,282.4,235.7,282.4,236.9z M278.5,261.7v-19.4h3.5v19.4H278.5z"/>
	<path fill="#4D4D4D" d="M287.4,258.1c1,0.7,2.9,1.4,4.6,1.4c2.6,0,3.8-1.3,3.8-2.9c0-1.7-1-2.6-3.6-3.6c-3.5-1.2-5.1-3.2-5.1-5.5
		c0-3.1,2.5-5.7,6.7-5.7c2,0,3.7,0.6,4.8,1.2l-0.9,2.6c-0.8-0.5-2.2-1.1-4-1.1c-2.1,0-3.2,1.2-3.2,2.6c0,1.6,1.2,2.3,3.7,3.3
		c3.4,1.3,5.1,3,5.1,5.8c0,3.4-2.6,5.8-7.2,5.8c-2.1,0-4.1-0.5-5.4-1.3L287.4,258.1z"/>
	<path fill="#4D4D4D" d="M303.2,258.1c1,0.7,2.9,1.4,4.6,1.4c2.6,0,3.8-1.3,3.8-2.9c0-1.7-1-2.6-3.6-3.6c-3.5-1.2-5.1-3.2-5.1-5.5
		c0-3.1,2.5-5.7,6.7-5.7c2,0,3.7,0.6,4.8,1.2l-0.9,2.6c-0.8-0.5-2.2-1.1-4-1.1c-2.1,0-3.2,1.2-3.2,2.6c0,1.6,1.2,2.3,3.7,3.3
		c3.4,1.3,5.1,3,5.1,5.8c0,3.4-2.6,5.8-7.2,5.8c-2.1,0-4.1-0.5-5.4-1.3L303.2,258.1z"/>
	<path fill="#4D4D4D" d="M323.5,236.9c0,1.2-0.8,2.2-2.2,2.2c-1.2,0-2.1-1-2.1-2.2c0-1.2,0.9-2.2,2.2-2.2
		C322.6,234.7,323.5,235.7,323.5,236.9z M319.5,261.7v-19.4h3.5v19.4H319.5z"/>
	<path fill="#4D4D4D" d="M328.9,247.6c0-2,0-3.6-0.2-5.2h3.1l0.2,3.2h0.1c1-1.8,3.2-3.6,6.4-3.6c2.7,0,6.8,1.6,6.8,8.2v11.6h-3.5
		v-11.2c0-3.1-1.2-5.7-4.5-5.7c-2.3,0-4.1,1.6-4.7,3.6c-0.2,0.4-0.2,1-0.2,1.6v11.6h-3.5V247.6z"/>
	<path fill="#4D4D4D" d="M367.8,242.4c-0.1,1.4-0.2,3-0.2,5.3v11.2c0,4.4-0.9,7.2-2.8,8.8c-1.9,1.8-4.6,2.3-7,2.3
		c-2.3,0-4.9-0.6-6.4-1.6l0.9-2.7c1.3,0.8,3.3,1.5,5.7,1.5c3.6,0,6.2-1.9,6.2-6.8v-2.2h-0.1c-1.1,1.8-3.2,3.2-6.2,3.2
		c-4.8,0-8.2-4.1-8.2-9.4c0-6.6,4.3-10.3,8.7-10.3c3.4,0,5.2,1.8,6,3.4h0.1l0.2-2.9H367.8z M364.1,250c0-0.6,0-1.1-0.2-1.6
		c-0.6-2-2.4-3.7-4.9-3.7c-3.4,0-5.8,2.8-5.8,7.3c0,3.8,1.9,7,5.7,7c2.2,0,4.1-1.4,4.9-3.6c0.2-0.6,0.3-1.3,0.3-1.9V250z"/>
</g>
</svg>
