<?xml version="1.0" standalone="no"?><!DOCTYPE svg PUBLIC "-//W3C//DTD SVG 1.1//EN" "http://www.w3.org/Graphics/SVG/1.1/DTD/svg11.dtd"><svg width="100%" height="100%" viewBox="0 0 1432 121" version="1.1" xmlns="http://www.w3.org/2000/svg" xmlns:xlink="http://www.w3.org/1999/xlink" xml:space="preserve" style="fill-rule:evenodd;clip-rule:evenodd;stroke-linejoin:round;stroke-miterlimit:1.41421;"><g><g><path d="M163.436,0.335l1.022,0c6.982,0 13.964,-0.004 20.947,0.012c0.364,0.001 1.002,0.103 1.042,0.271c0.129,0.541 0.076,1.139 -0.004,1.702c-0.014,0.099 -0.494,0.187 -0.759,0.188c-3.232,0.013 -6.463,0.008 -9.695,0.01c-1.186,0 -1.188,0.004 -1.188,1.201c-0.001,36.874 -0.001,73.748 0,110.621c0,1.273 0.002,1.274 1.318,1.275c2.972,0.001 5.944,0 8.916,0c1.666,0.001 1.716,0.064 1.403,1.852l-34.948,0c-0.014,-0.315 -0.007,-0.649 -0.048,-0.978c-0.084,-0.691 0.223,-0.889 0.889,-0.884c3.519,0.024 7.04,0.011 10.56,0.01c0.259,0 0.56,0.074 0.768,-0.032c0.257,-0.13 0.523,-0.378 0.626,-0.639c0.108,-0.276 0.031,-0.625 0.031,-0.943c0.003,-34.998 0.006,-69.996 0.003,-104.994c0,-0.431 -0.067,-0.862 -0.103,-1.293c-0.095,-0.005 -0.19,-0.009 -0.285,-0.013c-0.156,0.558 -0.353,1.109 -0.462,1.676c-0.743,3.859 -1.442,7.727 -2.204,11.583c-0.863,4.367 -1.791,8.721 -2.664,13.086c-0.574,2.87 -1.076,5.755 -1.651,8.626c-0.562,2.809 -1.194,5.603 -1.759,8.412c-0.463,2.305 -0.852,4.625 -1.31,6.931c-0.453,2.275 -0.964,4.539 -1.425,6.813c-0.353,1.743 -0.661,3.496 -1.003,5.242c-0.358,1.831 -0.737,3.658 -1.099,5.489c-0.451,2.281 -0.887,4.564 -1.341,6.844c-0.471,2.366 -0.961,4.727 -1.435,7.092c-0.344,1.718 -0.673,3.439 -1.011,5.158c-0.47,2.391 -0.946,4.781 -1.413,7.173c-0.461,2.363 -0.903,4.731 -1.375,7.093c-0.455,2.275 -0.937,4.544 -1.405,6.816c-0.052,0.253 -0.096,0.509 -0.124,0.766c-0.107,0.958 -0.816,1.416 -1.684,0.982c-0.253,-0.127 -0.397,-0.601 -0.466,-0.941c-0.533,-2.615 -1.045,-5.235 -1.544,-7.857c-0.446,-2.339 -0.842,-4.688 -1.306,-7.023c-0.457,-2.302 -0.994,-4.589 -1.452,-6.891c-0.46,-2.308 -0.846,-4.63 -1.301,-6.939c-0.46,-2.339 -0.975,-4.667 -1.449,-7.003c-0.337,-1.662 -0.644,-3.329 -0.969,-4.993c-0.367,-1.883 -0.745,-3.764 -1.11,-5.647c-0.563,-2.9 -1.108,-5.803 -1.681,-8.7c-0.468,-2.365 -0.981,-4.722 -1.445,-7.088c-0.46,-2.338 -0.871,-4.685 -1.327,-7.023c-0.34,-1.741 -0.734,-3.472 -1.078,-5.212c-0.572,-2.9 -1.111,-5.806 -1.687,-8.704c-0.47,-2.365 -0.991,-4.719 -1.459,-7.083c-0.456,-2.308 -0.855,-4.626 -1.312,-6.933c-0.463,-2.333 -0.982,-4.655 -1.447,-6.987c-0.353,-1.773 -0.646,-3.558 -0.992,-5.333c-0.106,-0.539 -0.299,-1.062 -0.452,-1.592c-0.096,0.01 -0.193,0.02 -0.289,0.03c-0.042,0.315 -0.121,0.63 -0.121,0.944c-0.002,27.41 0.002,54.82 0.006,82.23c0.001,4.299 -0.11,8.602 0.037,12.896c0.107,3.104 0.611,6.188 2.06,9.013c1.018,1.983 2.401,3.623 4.649,4.23c1.018,0.275 2.087,0.387 3.141,0.491c1.366,0.136 2.74,0.19 4.158,0.282l0,1.817c-0.121,0.018 -0.257,0.055 -0.392,0.055c-9.262,0 -18.524,-0.004 -27.785,-0.008c-1.184,0 -1.231,-0.068 -1.186,-1.2c0.018,-0.458 0.16,-0.686 0.646,-0.71c1.091,-0.054 2.181,-0.223 3.269,-0.207c5.081,0.075 7.258,-2.465 8.533,-6.832c1.068,-3.656 1.256,-7.408 1.254,-11.19c-0.016,-27.9 -0.01,-55.8 -0.026,-83.701c-0.001,-2.422 -0.207,-4.823 -1.17,-7.098c-0.966,-2.283 -2.82,-3.405 -5.141,-3.699c-2.332,-0.295 -4.695,-0.352 -7.193,-0.524c0,-0.469 -0.03,-1.036 0.02,-1.597c0.014,-0.149 0.25,-0.33 0.423,-0.4c0.174,-0.07 0.397,-0.02 0.6,-0.02c7.761,-0.001 15.522,0.009 23.284,-0.015c0.829,-0.003 1.146,0.154 1.285,1.099c0.357,2.409 0.958,4.78 1.42,7.174c0.359,1.861 0.635,3.737 0.987,5.599c0.443,2.339 0.938,4.668 1.389,7.005c0.468,2.422 0.902,4.85 1.365,7.273c0.452,2.366 0.928,4.727 1.382,7.093c0.47,2.452 0.917,4.908 1.391,7.359c0.457,2.365 0.944,4.723 1.404,7.087c0.351,1.801 0.673,3.607 1.023,5.408c0.393,2.027 0.814,4.048 1.201,6.075c0.349,1.833 0.655,3.674 1.005,5.506c0.36,1.888 0.759,3.767 1.126,5.654c0.334,1.718 0.641,3.442 0.971,5.161c0.487,2.534 0.983,5.066 1.477,7.598c0.236,1.211 0.474,2.421 0.723,3.629c0.03,0.149 0.137,0.282 0.208,0.423c0.095,0.005 0.191,0.011 0.286,0.016c5.971,-29.689 11.941,-59.378 17.927,-89.145" style="fill:#f77707;fill-rule:nonzero;"/><path d="M43.344,117.487c-0.261,-1.871 -0.261,-1.872 1.501,-1.872c3.376,0 6.751,0.003 10.127,-0.001c1.086,-0.002 1.147,-0.06 1.148,-1.109c0.001,-20.197 -0.003,-40.394 0.015,-60.591c0.001,-0.841 -0.293,-1.091 -1.106,-1.09c-10.214,0.019 -20.428,0.019 -30.642,0c-0.822,-0.002 -1.1,0.269 -1.1,1.099c0.018,20.197 0.013,40.394 0.016,60.591c0,1.035 0.07,1.098 1.159,1.1c3.376,0.004 6.752,0.001 10.128,0.001c1.744,0 1.744,0 1.495,1.853c-0.181,0.016 -0.374,0.049 -0.567,0.049c-11.455,0.001 -22.909,-0.004 -34.364,0.005c-0.675,0.001 -1.161,-0.015 -1.139,-0.933c0.018,-0.75 0.219,-0.998 0.988,-0.99c3.52,0.036 7.04,0.017 10.56,0.016c1.25,-0.001 1.253,-0.004 1.253,-1.253c0.001,-24.986 0.001,-49.972 0.001,-74.958c0,-11.887 0,-23.774 0,-35.662c-0.001,-1.222 -0.003,-1.224 -1.254,-1.225c-3.52,-0.001 -7.041,-0.036 -10.56,0.024c-0.972,0.016 -0.965,-0.457 -0.979,-1.16c-0.016,-0.732 0.117,-1.068 0.983,-1.066c11.397,0.03 22.794,0.032 34.191,-0.002c0.942,-0.003 0.975,0.404 0.993,1.133c0.019,0.792 -0.153,1.105 -1.036,1.092c-3.548,-0.052 -7.097,-0.022 -10.646,-0.02c-1.204,0 -1.208,0.004 -1.208,1.196c-0.001,15.234 0,30.468 0,45.702c0,1.547 0.01,1.564 1.612,1.565c6.722,0.003 13.445,0.001 20.168,0.001c3.173,0 6.347,0.004 9.521,-0.002c1.492,-0.003 1.519,-0.036 1.519,-1.478c0,-15.234 0,-30.469 0,-45.703c0,-1.279 -0.002,-1.281 -1.293,-1.282c-3.549,-0.001 -7.098,-0.033 -10.646,0.022c-0.921,0.014 -0.947,-0.422 -0.939,-1.102c0.008,-0.653 -0.035,-1.125 0.913,-1.123c11.455,0.033 22.909,0.032 34.364,0.001c0.988,-0.002 0.861,0.545 0.877,1.16c0.017,0.64 -0.009,1.074 -0.888,1.062c-3.606,-0.048 -7.213,0 -10.819,-0.035c-0.807,-0.008 -1.1,0.207 -1.099,1.064c0.019,36.989 0.018,73.978 0.002,110.967c0,0.828 0.263,1.105 1.092,1.097c3.549,-0.035 7.098,-0.016 10.647,-0.014c0.967,0.001 1.407,0.687 1.001,1.579c-0.059,0.129 -0.23,0.248 -0.373,0.289c-0.189,0.053 -0.4,0.03 -0.602,0.03c-11.483,0.002 -22.967,0.003 -34.45,0.003c-0.171,0 -0.342,-0.018 -0.564,-0.03" style="fill:#f77707;fill-rule:nonzero;"/><path d="M488.258,0.335c0.025,0.33 0.05,0.527 0.053,0.725c0.007,0.43 0.002,0.861 0.002,1.402c-0.379,0.02 -0.71,0.052 -1.041,0.052c-3.549,0.004 -7.097,0.002 -10.646,0.004c-1.216,0 -1.234,0.015 -1.234,1.184c-0.001,15.32 -0.001,30.639 0,45.959c0,1.208 0.101,1.317 1.346,1.318c10.069,0.004 20.138,0.005 30.207,-0.001c1.23,-0.001 1.324,-0.112 1.325,-1.34c0.001,-15.29 0.001,-30.581 0,-45.872c0,-1.244 -0.004,-1.248 -1.255,-1.248c-3.491,-0.002 -6.982,-0.001 -10.473,-0.001l-1.112,0l0,-2.182l34.781,0c1.254,0 1.254,0 1.256,1.221c0.001,0.282 0,0.564 0,0.961l-0.991,0c-3.549,0 -7.098,0.02 -10.646,-0.015c-0.813,-0.008 -1.093,0.219 -1.093,1.07c0.019,36.957 0.016,73.915 0.017,110.873c0,1.137 0.032,1.168 1.164,1.169c3.404,0.003 6.809,0.001 10.213,0.001c1.364,0 1.365,0 1.34,1.329c-0.002,0.14 -0.024,0.281 -0.044,0.5l-35.975,0c-0.023,-0.038 -0.073,-0.085 -0.076,-0.134c-0.118,-1.695 -0.117,-1.695 1.568,-1.695c3.404,0 6.809,-0.017 10.213,0.012c0.806,0.007 1.126,-0.241 1.126,-1.087c-0.017,-20.195 -0.012,-40.391 -0.015,-60.587c0,-1.033 -0.086,-1.115 -1.154,-1.115c-10.185,-0.003 -20.369,-0.003 -30.553,0c-1.1,0 -1.168,0.069 -1.168,1.19c-0.002,20.138 -0.002,40.276 0,60.414c0,1.104 0.069,1.17 1.188,1.172c3.491,0.004 6.982,0.001 10.473,0.001c1.27,0.001 1.27,0.001 1.26,1.251c-0.002,0.173 -0.001,0.345 -0.001,0.562c-0.181,0.036 -0.341,0.096 -0.501,0.096c-11.511,0 -23.023,-0.005 -34.534,-0.009c-1.021,-0.001 -1.482,-0.662 -1.017,-1.569c0.105,-0.205 0.571,-0.315 0.871,-0.317c3.52,-0.021 7.04,-0.013 10.56,-0.014c1.233,-0.001 1.263,-0.027 1.263,-1.255c0.001,-36.871 0.001,-73.742 0,-110.614c0,-1.226 -0.006,-1.228 -1.264,-1.229c-3.491,-0.001 -6.982,0 -10.473,0l-0.918,0c-0.056,-0.164 -0.107,-0.243 -0.106,-0.322c0.02,-2.249 -0.211,-1.851 1.805,-1.853c11.021,-0.014 22.042,-0.007 33.062,-0.007l1.197,0Z" style="fill:#f77707;fill-rule:nonzero;"/><path d="M629.41,30.187c0,8.826 0,17.653 0.001,26.479c0,1.2 0.01,1.236 1.194,1.213c4.61,-0.091 9.219,-0.198 13.827,-0.308c1.982,-0.047 3.874,-0.533 5.662,-1.354c4.318,-1.982 6.489,-5.619 7.53,-10.051c0.957,-4.075 1.272,-8.238 1.418,-12.407c0.163,-4.664 0.121,-9.323 -0.441,-13.973c-0.357,-2.949 -0.852,-5.846 -1.909,-8.632c-1.219,-3.212 -3.059,-5.898 -6.375,-7.222c-2.2,-0.878 -4.517,-1.365 -6.891,-1.391c-4.268,-0.046 -8.538,-0.021 -12.807,-0.023c-1.205,-0.001 -1.208,0.004 -1.208,1.19c-0.001,8.826 -0.001,17.653 -0.001,26.479M682.522,117.514c-1.135,0 -2.224,0.029 -3.311,-0.005c-2.475,-0.078 -4.991,0.064 -7.416,-0.336c-5.086,-0.837 -9.099,-3.462 -11.693,-8.023c-2.009,-3.531 -3.011,-7.377 -3.423,-11.389c-0.675,-6.591 -0.163,-13.198 -0.258,-19.796c-0.036,-2.532 0.035,-5.102 -0.375,-7.583c-0.673,-4.065 -2.846,-8.483 -8.278,-9.968c-2.433,-0.665 -4.953,-0.704 -7.462,-0.71c-3.261,-0.007 -6.521,0.021 -9.781,-0.017c-0.863,-0.011 -1.133,0.261 -1.132,1.14c0.023,17.86 0.017,35.72 0.018,53.579c0,1.174 0.034,1.207 1.223,1.208c3.203,0.003 6.405,0.015 9.608,-0.01c0.674,-0.005 0.997,0.147 0.985,0.905c-0.012,0.72 -0.193,1.021 -0.981,1.02c-11.051,-0.021 -22.101,-0.019 -33.152,-0.003c-0.693,0.001 -0.969,-0.186 -0.973,-0.923c-0.003,-0.745 0.215,-1.01 0.987,-1.003c3.549,0.034 7.098,0.017 10.647,0.014c1.137,-0.001 1.166,-0.03 1.166,-1.164c0.001,-36.932 0.001,-73.863 0,-110.795c0,-1.133 -0.004,-1.137 -1.165,-1.137c-3.549,-0.002 -7.098,-0.036 -10.646,0.022c-0.962,0.016 -0.978,-0.438 -0.985,-1.152c-0.007,-0.72 0.096,-1.075 0.975,-1.073c13.07,0.033 26.141,-0.041 39.21,0.08c3.339,0.032 6.716,0.351 9.911,1.605c4.066,1.595 6.77,4.611 8.739,8.352c1.75,3.327 2.826,6.885 3.514,10.592c0.818,4.402 0.978,8.829 0.533,13.243c-0.634,6.292 -2.505,12.171 -6.892,16.967c-2.867,3.135 -6.389,5.246 -10.466,6.428c-0.825,0.239 -1.667,0.417 -2.491,0.658c-0.216,0.064 -0.394,0.258 -0.589,0.391c0.212,0.15 0.408,0.395 0.638,0.433c2.507,0.419 4.799,1.374 6.963,2.681c4.077,2.463 6.726,6.036 8.251,10.504c1.148,3.367 1.771,6.843 1.983,10.373c0.203,3.361 0.193,6.735 0.269,10.103c0.078,3.455 -0.009,6.924 0.276,10.363c0.173,2.087 0.752,4.183 1.434,6.178c1.28,3.746 4.188,5.583 7.987,6.065c1.682,0.213 3.391,0.216 5.089,0.277c1.108,0.04 1.111,0.01 1.098,1.16c-0.003,0.225 -0.021,0.449 -0.035,0.746" style="fill:#f77707;fill-rule:nonzero;"/><path d="M597.356,71.715l0.937,0l0,45.8c-0.483,0 -0.963,0 -1.443,0c-19.993,0 -39.986,0 -59.98,0c-1.113,0 -1.068,-0.002 -1.085,-1.078c-0.012,-0.751 0.364,-0.832 0.969,-0.83c3.519,0.017 7.039,0.01 10.559,0.007c1.185,-0.001 1.201,-0.018 1.201,-1.219c0.001,-37.072 0.001,-74.145 0.001,-111.217c0,-1.23 -0.004,-1.233 -1.254,-1.233c-3.491,-0.002 -6.982,0 -10.473,-0.002c-0.309,-0.001 -0.619,-0.026 -0.964,-0.041l0,-1.498l61.059,0l0,38.35c-0.51,0.117 -0.916,0.189 -1.028,-0.564c-0.496,-3.349 -1.045,-6.691 -1.551,-10.038c-0.866,-5.738 -2.225,-11.332 -4.865,-16.543c-1.147,-2.265 -2.389,-4.478 -4.339,-6.186c-2.124,-1.86 -4.653,-2.81 -7.421,-2.857c-5.913,-0.1 -11.828,-0.025 -17.742,-0.064c-0.999,-0.007 -0.944,0.565 -0.944,1.234c0.005,11.309 0.003,22.618 0.003,33.928c0,4.529 -0.001,9.059 0.001,13.588c0.001,1.201 0.091,1.314 1.255,1.334c2.302,0.039 4.614,0.197 6.88,-0.395c3.489,-0.911 5.804,-3.284 7.378,-6.339c1.626,-3.159 2.552,-6.575 2.907,-10.135c0.297,-2.972 0.661,-5.938 1,-8.944c0.801,-0.184 1.01,0.187 1.007,0.907c-0.015,4.039 -0.007,8.078 -0.007,12.117c0,12.809 0,25.619 0,38.428c0,0.173 0.017,0.348 -0.003,0.519c-0.046,0.39 0.176,0.957 -0.527,0.964c-0.717,0.008 -0.498,-0.57 -0.526,-0.954c-0.268,-3.7 -0.636,-7.382 -1.49,-11.006c-0.635,-2.694 -1.382,-5.338 -2.778,-7.752c-1.564,-2.703 -3.883,-4.329 -6.963,-4.893c-2.412,-0.442 -4.815,-0.748 -7.274,-0.34c-0.677,0.112 -0.909,0.364 -0.861,0.991c0.014,0.172 0.001,0.346 0.001,0.519c0,19.272 0,38.544 0,57.816c0.001,1.525 0.003,1.571 1.528,1.518c4.951,-0.173 9.903,-0.334 14.851,-0.59c5.411,-0.279 9.284,-3.287 12.404,-7.397c2.236,-2.944 3.512,-6.403 4.636,-9.88c1.031,-3.189 1.988,-6.42 2.687,-9.694c0.652,-3.051 0.934,-6.182 1.355,-9.281c0.317,-2.331 0.596,-4.666 0.899,-7.05" style="fill:#f77707;fill-rule:nonzero;"/><path d="M397.958,117.459c-0.256,-1.844 -0.256,-1.844 1.433,-1.844c3.375,0 6.751,0.003 10.126,-0.002c1.036,-0.001 1.149,-0.113 1.156,-1.138c0.009,-1.414 0.003,-2.828 0.003,-4.241c0,-35.255 0,-70.509 0,-105.764c0,-0.288 -0.024,-0.579 0.004,-0.865c0.081,-0.824 -0.267,-1.157 -1.098,-1.095c-1.976,0.147 -3.988,0.072 -5.922,0.43c-2.536,0.471 -4.618,1.923 -6.239,3.928c-2.946,3.645 -5.097,7.741 -6.512,12.198c-0.789,2.486 -1.51,5.007 -2.031,7.559c-0.516,2.525 -0.794,5.104 -1.082,7.67c-0.324,2.887 -0.559,5.785 -0.801,8.681c-0.163,1.948 -0.27,3.9 -0.404,5.876c-0.654,0.161 -1.019,0.033 -1.013,-0.655c0.002,-0.202 -0.002,-0.404 -0.002,-0.606c0,-15.348 0,-30.696 0,-46.044c0,-1.211 0.001,-1.212 1.22,-1.212c19.416,0 38.832,0 58.248,0c1.182,0 1.183,0.001 1.183,1.151c0,15.434 0.001,30.869 0,46.304c0,1.113 -0.119,1.215 -1.225,1.033c-0.016,-0.24 -0.032,-0.494 -0.05,-0.747c-0.294,-4.105 -0.511,-8.217 -0.907,-12.311c-0.299,-3.085 -0.703,-6.171 -1.279,-9.215c-1.285,-6.792 -3.581,-13.205 -7.73,-18.829c-1.721,-2.335 -3.912,-4.186 -6.796,-4.741c-2.151,-0.414 -4.4,-0.334 -6.607,-0.422c-0.192,-0.008 -0.478,0.338 -0.578,0.578c-0.103,0.248 -0.037,0.568 -0.037,0.856c-0.001,36.697 -0.001,73.394 -0.001,110.091c0,1.531 0.001,1.532 1.543,1.532c3.376,0.001 6.751,0 10.127,0.001c1.27,0 1.271,0 1.246,1.272c-0.003,0.17 -0.021,0.339 -0.036,0.571l-35.939,0Z" style="fill:#f77707;fill-rule:nonzero;"/><path d="M274.29,0.381c0.266,2.136 0.266,2.136 -1.693,2.136c-3.318,0 -6.636,0.023 -9.953,-0.016c-0.843,-0.01 -1.157,0.207 -1.156,1.11c0.02,36.928 0.017,73.856 0.018,110.783c0,1.181 0.038,1.241 1.215,1.216c3.025,-0.066 6.057,-0.045 9.071,-0.268c4.555,-0.336 8.911,-1.413 12.702,-4.149c2.54,-1.833 4.291,-4.331 5.794,-7.011c1.765,-3.148 3.032,-6.513 4.018,-9.977c0.666,-2.341 1.285,-4.699 1.806,-7.075c0.423,-1.933 0.67,-3.905 0.994,-5.86c0.366,-2.207 0.742,-4.412 1.092,-6.621c0.274,-1.727 0.494,-3.462 0.777,-5.187c0.241,-1.472 0.559,-2.932 0.8,-4.405c0.109,-0.664 0.463,-0.687 1.015,-0.519l0,52.914c-0.17,0.026 -0.332,0.072 -0.495,0.072c-20.281,-0.001 -40.563,-0.005 -60.844,-0.011c-0.59,0 -1.222,0.163 -1.228,-0.836c-0.005,-0.828 0.231,-1.09 1.074,-1.08c3.49,0.043 6.981,0.019 10.472,0.018c1.25,-0.001 1.253,-0.004 1.253,-1.253c0.001,-23.974 0.001,-47.948 0.001,-71.922c0,-12.896 0,-25.792 -0.001,-38.688c0,-1.232 -0.002,-1.234 -1.245,-1.235c-3.52,-0.001 -7.04,-0.035 -10.558,0.023c-0.958,0.016 -0.983,-0.435 -0.99,-1.152c-0.006,-0.721 0.101,-1.076 0.979,-1.073c11.395,0.03 22.791,0.02 34.187,0.022c0.283,0 0.566,0.027 0.895,0.044" style="fill:#f77707;fill-rule:nonzero;"/><path d="M306.998,2.517l0,-2.126c0.312,-0.019 0.616,-0.053 0.92,-0.054c11.165,-0.002 22.331,0.009 33.496,-0.023c0.875,-0.002 0.992,0.34 0.971,1.064c-0.02,0.685 0.025,1.179 -0.964,1.163c-3.75,-0.06 -7.501,-0.004 -11.252,-0.039c-0.835,-0.008 -1.089,0.277 -1.088,1.099c0.02,31.275 -0.017,62.55 0.075,93.825c0.013,4.099 0.653,8.196 2.325,12.04c1.768,4.067 4.685,6.749 9.073,7.761c2.724,0.629 5.435,0.755 8.216,0.348c2.434,-0.355 4.788,-0.868 7.056,-1.843c2.587,-1.111 4.415,-3.01 5.782,-5.379c1.978,-3.425 3.021,-7.171 3.746,-11.044c1.013,-5.407 1.174,-10.858 1.172,-16.33c-0.006,-17.715 0.018,-35.43 -0.017,-53.145c-0.008,-4.32 -0.099,-8.645 -0.335,-12.958c-0.183,-3.362 -0.665,-6.715 -2.382,-9.714c-1.363,-2.382 -3.449,-3.854 -6.154,-4.314c-1.35,-0.23 -2.739,-0.233 -4.111,-0.328c-0.337,-0.023 -0.676,-0.003 -1.06,-0.003l0,-2.182l29.495,0c1.253,0 1.256,0.001 1.242,1.256c-0.002,0.281 -0.03,0.562 -0.051,0.926c-0.582,0 -1.095,-0.008 -1.608,0.001c-4.933,0.084 -8.603,2.233 -10.838,6.68c-1.401,2.787 -2.171,5.775 -2.262,8.87c-0.18,6.137 -0.272,12.279 -0.287,18.419c-0.039,14.887 0.027,29.775 -0.04,44.662c-0.017,3.938 -0.332,7.877 -0.573,11.812c-0.139,2.267 -0.266,4.549 -0.641,6.783c-0.863,5.126 -2.022,10.177 -5.506,14.298c-2.409,2.851 -5.535,4.492 -9.136,5.384c-2.995,0.742 -6.03,1.025 -9.073,0.824c-9.117,-0.601 -16.269,-4.459 -20.552,-12.835c-1.601,-3.131 -2.468,-6.483 -2.792,-9.977c-0.477,-5.14 -0.612,-10.291 -0.607,-15.453c0.023,-26.024 0.01,-52.047 0.01,-78.071c0,-1.396 0,-1.397 -1.427,-1.397c-3.26,0 -6.52,0 -9.781,0l-1.042,0Z" style="fill:#f77707;fill-rule:nonzero;"/><path d="M203.561,112.582c-0.232,0.962 -0.393,2.136 -0.806,3.214c-0.539,1.405 -1.65,2.15 -3.213,2.19c-1.598,0.041 -2.755,-0.692 -3.409,-2.066c-1.12,-2.353 -1.163,-4.791 -0.062,-7.165c0.985,-2.123 3.136,-2.915 5.007,-1.924c1.093,0.579 1.655,1.601 1.964,2.73c0.247,0.904 0.326,1.854 0.519,3.021" style="fill:#f77707;fill-rule:nonzero;"/><path d="M95.385,112.717c-0.274,0.974 -0.498,2.219 -0.976,3.357c-0.582,1.388 -1.795,1.921 -3.29,1.912c-1.547,-0.009 -2.611,-0.817 -3.202,-2.111c-1.035,-2.267 -1.076,-4.635 -0.109,-6.944c0.758,-1.81 2.162,-2.636 3.925,-2.492c1.346,0.11 2.698,1.399 3.12,3.096c0.234,0.939 0.326,1.913 0.532,3.182" style="fill:#f77707;fill-rule:nonzero;"/></g><g><path d="M701.895,102.87l0.06,0c0.36,-0.3 0.845,-0.525 1.455,-0.675c0.61,-0.15 1.175,-0.225 1.695,-0.225c0.94,0 1.81,0.17 2.61,0.51c0.8,0.34 1.49,0.805 2.07,1.395c0.58,0.59 1.03,1.28 1.35,2.07c0.32,0.79 0.48,1.645 0.48,2.565c0,0.96 -0.175,1.845 -0.525,2.655c-0.35,0.81 -0.835,1.505 -1.455,2.085c-0.62,0.58 -1.355,1.035 -2.205,1.365c-0.85,0.33 -1.775,0.495 -2.775,0.495c-1,0 -1.925,-0.165 -2.775,-0.495c-0.85,-0.33 -1.585,-0.785 -2.205,-1.365c-0.62,-0.58 -1.105,-1.275 -1.455,-2.085c-0.35,-0.81 -0.525,-1.695 -0.525,-2.655c0,-0.56 0.06,-1.09 0.18,-1.59c0.12,-0.5 0.28,-0.975 0.48,-1.425c0.2,-0.45 0.41,-0.875 0.63,-1.275c0.22,-0.4 0.44,-0.78 0.66,-1.14l5.76,-9.57l2.28,0l-5.79,9.36ZM704.655,103.53c-0.7,0 -1.35,0.13 -1.95,0.39c-0.6,0.26 -1.125,0.615 -1.575,1.065c-0.45,0.45 -0.805,0.98 -1.065,1.59c-0.26,0.61 -0.39,1.255 -0.39,1.935c0,0.74 0.12,1.415 0.36,2.025c0.24,0.61 0.58,1.135 1.02,1.575c0.44,0.44 0.965,0.78 1.575,1.02c0.61,0.24 1.285,0.36 2.025,0.36c0.74,0 1.415,-0.12 2.025,-0.36c0.61,-0.24 1.135,-0.58 1.575,-1.02c0.44,-0.44 0.78,-0.965 1.02,-1.575c0.24,-0.61 0.36,-1.285 0.36,-2.025c0,-0.68 -0.13,-1.325 -0.39,-1.935c-0.26,-0.61 -0.615,-1.14 -1.065,-1.59c-0.45,-0.45 -0.98,-0.805 -1.59,-1.065c-0.61,-0.26 -1.255,-0.39 -1.935,-0.39Z" style="fill:#666;fill-rule:nonzero;"/><path d="M720.285,96.03l-0.03,0l-3.84,3.15l-1.11,-1.38l5.25,-4.29l1.53,0l0,21.24l-1.8,0l0,-18.72Z" style="fill:#666;fill-rule:nonzero;"/><path d="M738.765,93.51l12.99,0l0,1.8l-11.01,0l0,7.56l10.32,0l0,1.8l-10.32,0l0,8.28l11.49,0l0,1.8l-13.47,0l0,-21.24Z" style="fill:#666;fill-rule:nonzero;"/><path d="M766.815,108.93c0,0.68 0.005,1.29 0.015,1.83c0.01,0.54 0.025,1.04 0.045,1.5c0.02,0.46 0.045,0.89 0.075,1.29c0.03,0.4 0.075,0.8 0.135,1.2l-1.68,0c-0.12,-0.68 -0.18,-1.43 -0.18,-2.25l-0.06,0c-0.52,0.9 -1.165,1.56 -1.935,1.98c-0.77,0.42 -1.745,0.63 -2.925,0.63c-0.6,0 -1.19,-0.075 -1.77,-0.225c-0.58,-0.15 -1.1,-0.39 -1.56,-0.72c-0.46,-0.33 -0.835,-0.755 -1.125,-1.275c-0.29,-0.52 -0.435,-1.15 -0.435,-1.89c0,-1.06 0.27,-1.9 0.81,-2.52c0.54,-0.62 1.205,-1.085 1.995,-1.395c0.79,-0.31 1.63,-0.51 2.52,-0.6c0.89,-0.09 1.675,-0.135 2.355,-0.135l2.1,0l0,-0.84c0,-1.2 -0.37,-2.06 -1.11,-2.58c-0.74,-0.52 -1.67,-0.78 -2.79,-0.78c-1.6,0 -3.01,0.52 -4.23,1.56l-1.05,-1.23c0.66,-0.64 1.48,-1.125 2.46,-1.455c0.98,-0.33 1.92,-0.495 2.82,-0.495c1.68,0 3.02,0.395 4.02,1.185c1,0.79 1.5,2.065 1.5,3.825l0,3.39ZM763.215,107.79c-0.76,0 -1.495,0.05 -2.205,0.15c-0.71,0.1 -1.35,0.27 -1.92,0.51c-0.57,0.24 -1.025,0.56 -1.365,0.96c-0.34,0.4 -0.51,0.9 -0.51,1.5c0,0.42 0.095,0.795 0.285,1.125c0.19,0.33 0.435,0.6 0.735,0.81c0.3,0.21 0.635,0.37 1.005,0.48c0.37,0.11 0.745,0.165 1.125,0.165c0.96,0 1.75,-0.14 2.37,-0.42c0.62,-0.28 1.115,-0.645 1.485,-1.095c0.37,-0.45 0.625,-0.96 0.765,-1.53c0.14,-0.57 0.21,-1.145 0.21,-1.725l0,-0.93l-1.98,0Z" style="fill:#666;fill-rule:nonzero;"/><path d="M771.645,111.21c0.38,0.74 0.94,1.305 1.68,1.695c0.74,0.39 1.52,0.585 2.34,0.585c0.38,0 0.76,-0.06 1.14,-0.18c0.38,-0.12 0.72,-0.29 1.02,-0.51c0.3,-0.22 0.545,-0.485 0.735,-0.795c0.19,-0.31 0.285,-0.665 0.285,-1.065c0,-0.64 -0.205,-1.12 -0.615,-1.44c-0.41,-0.32 -0.915,-0.57 -1.515,-0.75c-0.6,-0.18 -1.26,-0.335 -1.98,-0.465c-0.72,-0.13 -1.38,-0.33 -1.98,-0.6c-0.6,-0.27 -1.105,-0.645 -1.515,-1.125c-0.41,-0.48 -0.615,-1.16 -0.615,-2.04c0,-0.68 0.14,-1.27 0.42,-1.77c0.28,-0.5 0.645,-0.915 1.095,-1.245c0.45,-0.33 0.955,-0.575 1.515,-0.735c0.56,-0.16 1.13,-0.24 1.71,-0.24c1.14,0 2.125,0.21 2.955,0.63c0.83,0.42 1.475,1.08 1.935,1.98l-1.62,0.96c-0.34,-0.64 -0.765,-1.125 -1.275,-1.455c-0.51,-0.33 -1.175,-0.495 -1.995,-0.495c-0.32,0 -0.655,0.05 -1.005,0.15c-0.35,0.1 -0.665,0.24 -0.945,0.42c-0.28,0.18 -0.515,0.41 -0.705,0.69c-0.19,0.28 -0.285,0.6 -0.285,0.96c0,0.62 0.205,1.08 0.615,1.38c0.41,0.3 0.915,0.535 1.515,0.705c0.6,0.17 1.26,0.315 1.98,0.435c0.72,0.12 1.38,0.315 1.98,0.585c0.6,0.27 1.105,0.66 1.515,1.17c0.41,0.51 0.615,1.235 0.615,2.175c0,0.72 -0.135,1.345 -0.405,1.875c-0.27,0.53 -0.64,0.975 -1.11,1.335c-0.47,0.36 -1.005,0.63 -1.605,0.81c-0.6,0.18 -1.23,0.27 -1.89,0.27c-1.2,0 -2.295,-0.23 -3.285,-0.69c-0.99,-0.46 -1.755,-1.17 -2.295,-2.13l1.59,-1.08Z" style="fill:#666;fill-rule:nonzero;"/><path d="M791.175,102.51l-3.96,0l0,9.03c0,0.62 0.17,1.1 0.51,1.44c0.34,0.34 0.81,0.51 1.41,0.51c0.34,0 0.685,-0.045 1.035,-0.135c0.35,-0.09 0.685,-0.205 1.005,-0.345l0.15,1.62c-0.34,0.12 -0.73,0.23 -1.17,0.33c-0.44,0.1 -0.83,0.15 -1.17,0.15c-0.64,0 -1.19,-0.095 -1.65,-0.285c-0.46,-0.19 -0.83,-0.445 -1.11,-0.765c-0.28,-0.32 -0.485,-0.695 -0.615,-1.125c-0.13,-0.43 -0.195,-0.895 -0.195,-1.395l0,-9.03l-3,0l0,-1.62l3,0l0,-3.99l1.8,0l0,3.99l3.96,0l0,1.62Z" style="fill:#666;fill-rule:nonzero;"/><path d="M807.615,96.03l-0.03,0l-3.84,3.15l-1.11,-1.38l5.25,-4.29l1.53,0l0,21.24l-1.8,0l0,-18.72Z" style="fill:#666;fill-rule:nonzero;"/><path d="M823.215,96.03l-0.03,0l-3.84,3.15l-1.11,-1.38l5.25,-4.29l1.53,0l0,21.24l-1.8,0l0,-18.72Z" style="fill:#666;fill-rule:nonzero;"/><path d="M840.165,102.51l-3.96,0l0,9.03c0,0.62 0.17,1.1 0.51,1.44c0.34,0.34 0.81,0.51 1.41,0.51c0.34,0 0.685,-0.045 1.035,-0.135c0.35,-0.09 0.685,-0.205 1.005,-0.345l0.15,1.62c-0.34,0.12 -0.73,0.23 -1.17,0.33c-0.44,0.1 -0.83,0.15 -1.17,0.15c-0.64,0 -1.19,-0.095 -1.65,-0.285c-0.46,-0.19 -0.83,-0.445 -1.11,-0.765c-0.28,-0.32 -0.485,-0.695 -0.615,-1.125c-0.13,-0.43 -0.195,-0.895 -0.195,-1.395l0,-9.03l-3,0l0,-1.62l3,0l0,-3.99l1.8,0l0,3.99l3.96,0l0,1.62Z" style="fill:#666;fill-rule:nonzero;"/><path d="M843.405,92.07l1.8,0l0,11.25l0.06,0c0.36,-0.76 0.96,-1.415 1.8,-1.965c0.84,-0.55 1.82,-0.825 2.94,-0.825c1.08,0 1.96,0.17 2.64,0.51c0.68,0.34 1.215,0.785 1.605,1.335c0.39,0.55 0.66,1.185 0.81,1.905c0.15,0.72 0.225,1.46 0.225,2.22l0,8.25l-1.8,0l0,-8.16c0,-0.56 -0.05,-1.105 -0.15,-1.635c-0.1,-0.53 -0.275,-1.005 -0.525,-1.425c-0.25,-0.42 -0.6,-0.755 -1.05,-1.005c-0.45,-0.25 -1.035,-0.375 -1.755,-0.375c-0.66,0 -1.285,0.115 -1.875,0.345c-0.59,0.23 -1.1,0.58 -1.53,1.05c-0.43,0.47 -0.77,1.06 -1.02,1.77c-0.25,0.71 -0.375,1.545 -0.375,2.505l0,6.93l-1.8,0l0,-22.68Z" style="fill:#666;fill-rule:nonzero;"/><path d="M868.965,110.82c0.52,0.9 1.195,1.57 2.025,2.01c0.83,0.44 1.775,0.66 2.835,0.66c0.66,0 1.28,-0.1 1.86,-0.3c0.58,-0.2 1.085,-0.48 1.515,-0.84c0.43,-0.36 0.77,-0.795 1.02,-1.305c0.25,-0.51 0.375,-1.085 0.375,-1.725c0,-0.74 -0.155,-1.35 -0.465,-1.83c-0.31,-0.48 -0.725,-0.875 -1.245,-1.185c-0.52,-0.31 -1.105,-0.575 -1.755,-0.795c-0.65,-0.22 -1.32,-0.44 -2.01,-0.66c-0.69,-0.22 -1.36,-0.47 -2.01,-0.75c-0.65,-0.28 -1.235,-0.645 -1.755,-1.095c-0.52,-0.45 -0.935,-1.015 -1.245,-1.695c-0.31,-0.68 -0.465,-1.52 -0.465,-2.52c0,-0.94 0.185,-1.775 0.555,-2.505c0.37,-0.73 0.87,-1.34 1.5,-1.83c0.63,-0.49 1.355,-0.86 2.175,-1.11c0.82,-0.25 1.68,-0.375 2.58,-0.375c1.16,0 2.235,0.205 3.225,0.615c0.99,0.41 1.845,1.095 2.565,2.055l-1.71,1.23c-0.5,-0.7 -1.085,-1.225 -1.755,-1.575c-0.67,-0.35 -1.465,-0.525 -2.385,-0.525c-0.64,0 -1.25,0.085 -1.83,0.255c-0.58,0.17 -1.085,0.42 -1.515,0.75c-0.43,0.33 -0.775,0.745 -1.035,1.245c-0.26,0.5 -0.39,1.09 -0.39,1.77c0,1.06 0.27,1.875 0.81,2.445c0.54,0.57 1.215,1.02 2.025,1.35c0.81,0.33 1.69,0.62 2.64,0.87c0.95,0.25 1.83,0.585 2.64,1.005c0.81,0.42 1.485,1.005 2.025,1.755c0.54,0.75 0.81,1.785 0.81,3.105c0,0.96 -0.18,1.81 -0.54,2.55c-0.36,0.74 -0.845,1.365 -1.455,1.875c-0.61,0.51 -1.315,0.895 -2.115,1.155c-0.8,0.26 -1.63,0.39 -2.49,0.39c-1.4,0 -2.69,-0.245 -3.87,-0.735c-1.18,-0.49 -2.19,-1.315 -3.03,-2.475l1.89,-1.26Z" style="fill:#666;fill-rule:nonzero;"/><path d="M891.345,102.51l-3.96,0l0,9.03c0,0.62 0.17,1.1 0.51,1.44c0.34,0.34 0.81,0.51 1.41,0.51c0.34,0 0.685,-0.045 1.035,-0.135c0.35,-0.09 0.685,-0.205 1.005,-0.345l0.15,1.62c-0.34,0.12 -0.73,0.23 -1.17,0.33c-0.44,0.1 -0.83,0.15 -1.17,0.15c-0.64,0 -1.19,-0.095 -1.65,-0.285c-0.46,-0.19 -0.83,-0.445 -1.11,-0.765c-0.28,-0.32 -0.485,-0.695 -0.615,-1.125c-0.13,-0.43 -0.195,-0.895 -0.195,-1.395l0,-9.03l-3,0l0,-1.62l3,0l0,-3.99l1.8,0l0,3.99l3.96,0l0,1.62Z" style="fill:#666;fill-rule:nonzero;"/><path d="M894.555,104.79c0,-0.26 -0.01,-0.575 -0.03,-0.945c-0.02,-0.37 -0.035,-0.745 -0.045,-1.125c-0.01,-0.38 -0.025,-0.735 -0.045,-1.065c-0.02,-0.33 -0.03,-0.585 -0.03,-0.765l1.8,0c0.02,0.52 0.035,1.02 0.045,1.5c0.01,0.48 0.035,0.79 0.075,0.93c0.46,-0.82 1.05,-1.49 1.77,-2.01c0.72,-0.52 1.6,-0.78 2.64,-0.78c0.18,0 0.355,0.015 0.525,0.045c0.17,0.03 0.345,0.065 0.525,0.105l-0.21,1.77c-0.24,-0.08 -0.47,-0.12 -0.69,-0.12c-0.78,0 -1.455,0.125 -2.025,0.375c-0.57,0.25 -1.04,0.595 -1.41,1.035c-0.37,0.44 -0.645,0.955 -0.825,1.545c-0.18,0.59 -0.27,1.225 -0.27,1.905l0,7.56l-1.8,0l0,-9.96Z" style="fill:#666;fill-rule:nonzero;"/><path d="M916.245,112.14c-0.7,1.06 -1.565,1.82 -2.595,2.28c-1.03,0.46 -2.165,0.69 -3.405,0.69c-1.06,0 -2.02,-0.18 -2.88,-0.54c-0.86,-0.36 -1.6,-0.865 -2.22,-1.515c-0.62,-0.65 -1.095,-1.42 -1.425,-2.31c-0.33,-0.89 -0.495,-1.875 -0.495,-2.955c0,-1.04 0.17,-2 0.51,-2.88c0.34,-0.88 0.82,-1.645 1.44,-2.295c0.62,-0.65 1.35,-1.16 2.19,-1.53c0.84,-0.37 1.77,-0.555 2.79,-0.555c1.06,0 1.995,0.185 2.805,0.555c0.81,0.37 1.49,0.86 2.04,1.47c0.55,0.61 0.965,1.305 1.245,2.085c0.28,0.78 0.42,1.57 0.42,2.37l0,1.26l-11.64,0c0,0.38 0.075,0.865 0.225,1.455c0.15,0.59 0.425,1.165 0.825,1.725c0.4,0.56 0.935,1.04 1.605,1.44c0.67,0.4 1.535,0.6 2.595,0.6c0.92,0 1.81,-0.22 2.67,-0.66c0.86,-0.44 1.52,-1.04 1.98,-1.8l1.32,1.11ZM914.865,106.65c0,-0.62 -0.125,-1.2 -0.375,-1.74c-0.25,-0.54 -0.59,-1.015 -1.02,-1.425c-0.43,-0.41 -0.94,-0.735 -1.53,-0.975c-0.59,-0.24 -1.215,-0.36 -1.875,-0.36c-0.98,0 -1.795,0.2 -2.445,0.6c-0.65,0.4 -1.165,0.86 -1.545,1.38c-0.38,0.52 -0.65,1.025 -0.81,1.515c-0.16,0.49 -0.24,0.825 -0.24,1.005l9.84,0Z" style="fill:#666;fill-rule:nonzero;"/><path d="M932.925,112.14c-0.7,1.06 -1.565,1.82 -2.595,2.28c-1.03,0.46 -2.165,0.69 -3.405,0.69c-1.06,0 -2.02,-0.18 -2.88,-0.54c-0.86,-0.36 -1.6,-0.865 -2.22,-1.515c-0.62,-0.65 -1.095,-1.42 -1.425,-2.31c-0.33,-0.89 -0.495,-1.875 -0.495,-2.955c0,-1.04 0.17,-2 0.51,-2.88c0.34,-0.88 0.82,-1.645 1.44,-2.295c0.62,-0.65 1.35,-1.16 2.19,-1.53c0.84,-0.37 1.77,-0.555 2.79,-0.555c1.06,0 1.995,0.185 2.805,0.555c0.81,0.37 1.49,0.86 2.04,1.47c0.55,0.61 0.965,1.305 1.245,2.085c0.28,0.78 0.42,1.57 0.42,2.37l0,1.26l-11.64,0c0,0.38 0.075,0.865 0.225,1.455c0.15,0.59 0.425,1.165 0.825,1.725c0.4,0.56 0.935,1.04 1.605,1.44c0.67,0.4 1.535,0.6 2.595,0.6c0.92,0 1.81,-0.22 2.67,-0.66c0.86,-0.44 1.52,-1.04 1.98,-1.8l1.32,1.11ZM931.545,106.65c0,-0.62 -0.125,-1.2 -0.375,-1.74c-0.25,-0.54 -0.59,-1.015 -1.02,-1.425c-0.43,-0.41 -0.94,-0.735 -1.53,-0.975c-0.59,-0.24 -1.215,-0.36 -1.875,-0.36c-0.98,0 -1.795,0.2 -2.445,0.6c-0.65,0.4 -1.165,0.86 -1.545,1.38c-0.38,0.52 -0.65,1.025 -0.81,1.515c-0.16,0.49 -0.24,0.825 -0.24,1.005l9.84,0Z" style="fill:#666;fill-rule:nonzero;"/><path d="M944.145,102.51l-3.96,0l0,9.03c0,0.62 0.17,1.1 0.51,1.44c0.34,0.34 0.81,0.51 1.41,0.51c0.34,0 0.685,-0.045 1.035,-0.135c0.35,-0.09 0.685,-0.205 1.005,-0.345l0.15,1.62c-0.34,0.12 -0.73,0.23 -1.17,0.33c-0.44,0.1 -0.83,0.15 -1.17,0.15c-0.64,0 -1.19,-0.095 -1.65,-0.285c-0.46,-0.19 -0.83,-0.445 -1.11,-0.765c-0.28,-0.32 -0.485,-0.695 -0.615,-1.125c-0.13,-0.43 -0.195,-0.895 -0.195,-1.395l0,-9.03l-3,0l0,-1.62l3,0l0,-3.99l1.8,0l0,3.99l3.96,0l0,1.62Z" style="fill:#666;fill-rule:nonzero;"/><path d="M955.665,93.51l2.55,0l12.93,18.6l0.06,0l0,-18.6l1.98,0l0,21.24l-2.55,0l-12.93,-18.6l-0.06,0l0,18.6l-1.98,0l0,-21.24Z" style="fill:#666;fill-rule:nonzero;"/><path d="M990.735,112.14c-0.7,1.06 -1.565,1.82 -2.595,2.28c-1.03,0.46 -2.165,0.69 -3.405,0.69c-1.06,0 -2.02,-0.18 -2.88,-0.54c-0.86,-0.36 -1.6,-0.865 -2.22,-1.515c-0.62,-0.65 -1.095,-1.42 -1.425,-2.31c-0.33,-0.89 -0.495,-1.875 -0.495,-2.955c0,-1.04 0.17,-2 0.51,-2.88c0.34,-0.88 0.82,-1.645 1.44,-2.295c0.62,-0.65 1.35,-1.16 2.19,-1.53c0.84,-0.37 1.77,-0.555 2.79,-0.555c1.06,0 1.995,0.185 2.805,0.555c0.81,0.37 1.49,0.86 2.04,1.47c0.55,0.61 0.965,1.305 1.245,2.085c0.28,0.78 0.42,1.57 0.42,2.37l0,1.26l-11.64,0c0,0.38 0.075,0.865 0.225,1.455c0.15,0.59 0.425,1.165 0.825,1.725c0.4,0.56 0.935,1.04 1.605,1.44c0.67,0.4 1.535,0.6 2.595,0.6c0.92,0 1.81,-0.22 2.67,-0.66c0.86,-0.44 1.52,-1.04 1.98,-1.8l1.32,1.11ZM989.355,106.65c0,-0.62 -0.125,-1.2 -0.375,-1.74c-0.25,-0.54 -0.59,-1.015 -1.02,-1.425c-0.43,-0.41 -0.94,-0.735 -1.53,-0.975c-0.59,-0.24 -1.215,-0.36 -1.875,-0.36c-0.98,0 -1.795,0.2 -2.445,0.6c-0.65,0.4 -1.165,0.86 -1.545,1.38c-0.38,0.52 -0.65,1.025 -0.81,1.515c-0.16,0.49 -0.24,0.825 -0.24,1.005l9.84,0Z" style="fill:#666;fill-rule:nonzero;"/><path d="M993.225,100.89l1.98,0l3.36,11.61l0.06,0l3.87,-11.61l1.71,0l4.11,11.61l0.06,0l3.27,-11.61l1.8,0l-4.08,13.86l-1.86,0l-4.14,-11.34l-0.06,0l-3.87,11.34l-1.86,0l-4.35,-13.86Z" style="fill:#666;fill-rule:nonzero;"/><path d="M1029.32,105.6l-7.8,-12.09l2.37,0l6.42,10.08l6.57,-10.08l2.22,0l-7.8,12.09l0,9.15l-1.98,0l0,-9.15Z" style="fill:#666;fill-rule:nonzero;"/><path d="M1037.78,107.82c0,-1.06 0.18,-2.035 0.54,-2.925c0.36,-0.89 0.86,-1.66 1.5,-2.31c0.64,-0.65 1.41,-1.155 2.31,-1.515c0.9,-0.36 1.88,-0.54 2.94,-0.54c1.06,0 2.035,0.18 2.925,0.54c0.89,0.36 1.66,0.865 2.31,1.515c0.65,0.65 1.155,1.42 1.515,2.31c0.36,0.89 0.54,1.865 0.54,2.925c0,1.06 -0.18,2.035 -0.54,2.925c-0.36,0.89 -0.865,1.66 -1.515,2.31c-0.65,0.65 -1.42,1.155 -2.31,1.515c-0.89,0.36 -1.865,0.54 -2.925,0.54c-1.06,0 -2.04,-0.18 -2.94,-0.54c-0.9,-0.36 -1.67,-0.865 -2.31,-1.515c-0.64,-0.65 -1.14,-1.42 -1.5,-2.31c-0.36,-0.89 -0.54,-1.865 -0.54,-2.925ZM1039.58,107.82c0,0.78 0.125,1.515 0.375,2.205c0.25,0.69 0.615,1.29 1.095,1.8c0.48,0.51 1.06,0.915 1.74,1.215c0.68,0.3 1.44,0.45 2.28,0.45c0.84,0 1.6,-0.15 2.28,-0.45c0.68,-0.3 1.26,-0.705 1.74,-1.215c0.48,-0.51 0.845,-1.11 1.095,-1.8c0.25,-0.69 0.375,-1.425 0.375,-2.205c0,-0.78 -0.125,-1.515 -0.375,-2.205c-0.25,-0.69 -0.615,-1.29 -1.095,-1.8c-0.48,-0.51 -1.06,-0.915 -1.74,-1.215c-0.68,-0.3 -1.44,-0.45 -2.28,-0.45c-0.84,0 -1.6,0.15 -2.28,0.45c-0.68,0.3 -1.26,0.705 -1.74,1.215c-0.48,0.51 -0.845,1.11 -1.095,1.8c-0.25,0.69 -0.375,1.425 -0.375,2.205Z" style="fill:#666;fill-rule:nonzero;"/><path d="M1056.38,104.79c0,-0.26 -0.01,-0.575 -0.03,-0.945c-0.02,-0.37 -0.035,-0.745 -0.045,-1.125c-0.01,-0.38 -0.025,-0.735 -0.045,-1.065c-0.02,-0.33 -0.03,-0.585 -0.03,-0.765l1.8,0c0.02,0.52 0.035,1.02 0.045,1.5c0.01,0.48 0.035,0.79 0.075,0.93c0.46,-0.82 1.05,-1.49 1.77,-2.01c0.72,-0.52 1.6,-0.78 2.64,-0.78c0.18,0 0.355,0.015 0.525,0.045c0.17,0.03 0.345,0.065 0.525,0.105l-0.21,1.77c-0.24,-0.08 -0.47,-0.12 -0.69,-0.12c-0.78,0 -1.455,0.125 -2.025,0.375c-0.57,0.25 -1.04,0.595 -1.41,1.035c-0.37,0.44 -0.645,0.955 -0.825,1.545c-0.18,0.59 -0.27,1.225 -0.27,1.905l0,7.56l-1.8,0l0,-9.96Z" style="fill:#666;fill-rule:nonzero;"/><path d="M1066.37,92.07l1.8,0l0,15.12l6.84,-6.27l2.64,0l-7.14,6.33l7.98,7.5l-2.73,0l-7.59,-7.32l0,7.32l-1.8,0l0,-22.68Z" style="fill:#666;fill-rule:nonzero;"/><path d="M1081.88,112.05l2.1,0l-2.31,6.84l-1.77,0l1.98,-6.84Z" style="fill:#666;fill-rule:nonzero;"/><path d="M1096.9,93.51l2.55,0l12.93,18.6l0.06,0l0,-18.6l1.98,0l0,21.24l-2.55,0l-12.93,-18.6l-0.06,0l0,18.6l-1.98,0l0,-21.24Z" style="fill:#666;fill-rule:nonzero;"/><path d="M1124.95,105.6l-7.8,-12.09l2.37,0l6.42,10.08l6.57,-10.08l2.22,0l-7.8,12.09l0,9.15l-1.98,0l0,-9.15Z" style="fill:#666;fill-rule:nonzero;"/><path d="M1150.18,96.03l-0.03,0l-3.84,3.15l-1.11,-1.38l5.25,-4.29l1.53,0l0,21.24l-1.8,0l0,-18.72Z" style="fill:#666;fill-rule:nonzero;"/><path d="M1158.74,104.13c0,-0.76 0.035,-1.565 0.105,-2.415c0.07,-0.85 0.2,-1.68 0.39,-2.49c0.19,-0.81 0.45,-1.58 0.78,-2.31c0.33,-0.73 0.755,-1.375 1.275,-1.935c0.52,-0.56 1.145,-1.005 1.875,-1.335c0.73,-0.33 1.595,-0.495 2.595,-0.495c1,0 1.865,0.165 2.595,0.495c0.73,0.33 1.355,0.775 1.875,1.335c0.52,0.56 0.945,1.205 1.275,1.935c0.33,0.73 0.59,1.5 0.78,2.31c0.19,0.81 0.32,1.64 0.39,2.49c0.07,0.85 0.105,1.655 0.105,2.415c0,0.78 -0.035,1.59 -0.105,2.43c-0.07,0.84 -0.2,1.665 -0.39,2.475c-0.19,0.81 -0.45,1.58 -0.78,2.31c-0.33,0.73 -0.755,1.375 -1.275,1.935c-0.52,0.56 -1.145,1.005 -1.875,1.335c-0.73,0.33 -1.595,0.495 -2.595,0.495c-1,0 -1.865,-0.165 -2.595,-0.495c-0.73,-0.33 -1.355,-0.775 -1.875,-1.335c-0.52,-0.56 -0.945,-1.205 -1.275,-1.935c-0.33,-0.73 -0.59,-1.5 -0.78,-2.31c-0.19,-0.81 -0.32,-1.635 -0.39,-2.475c-0.07,-0.84 -0.105,-1.65 -0.105,-2.43ZM1160.71,104.13c0,0.56 0.02,1.175 0.06,1.845c0.04,0.67 0.12,1.35 0.24,2.04c0.12,0.69 0.295,1.365 0.525,2.025c0.23,0.66 0.53,1.245 0.9,1.755c0.37,0.51 0.825,0.92 1.365,1.23c0.54,0.31 1.19,0.465 1.95,0.465c0.74,0 1.385,-0.155 1.935,-0.465c0.55,-0.31 1.01,-0.72 1.38,-1.23c0.37,-0.51 0.67,-1.095 0.9,-1.755c0.23,-0.66 0.405,-1.335 0.525,-2.025c0.12,-0.69 0.2,-1.37 0.24,-2.04c0.04,-0.67 0.06,-1.285 0.06,-1.845c0,-0.54 -0.02,-1.15 -0.06,-1.83c-0.04,-0.68 -0.12,-1.365 -0.24,-2.055c-0.12,-0.69 -0.295,-1.365 -0.525,-2.025c-0.23,-0.66 -0.53,-1.245 -0.9,-1.755c-0.37,-0.51 -0.83,-0.92 -1.38,-1.23c-0.55,-0.31 -1.195,-0.465 -1.935,-0.465c-0.74,0 -1.385,0.155 -1.935,0.465c-0.55,0.31 -1.01,0.72 -1.38,1.23c-0.37,0.51 -0.67,1.095 -0.9,1.755c-0.23,0.66 -0.405,1.335 -0.525,2.025c-0.12,0.69 -0.2,1.375 -0.24,2.055c-0.04,0.68 -0.06,1.29 -0.06,1.83Z" style="fill:#666;fill-rule:nonzero;"/><path d="M1174.34,104.13c0,-0.76 0.035,-1.565 0.105,-2.415c0.07,-0.85 0.2,-1.68 0.39,-2.49c0.19,-0.81 0.45,-1.58 0.78,-2.31c0.33,-0.73 0.755,-1.375 1.275,-1.935c0.52,-0.56 1.145,-1.005 1.875,-1.335c0.73,-0.33 1.595,-0.495 2.595,-0.495c1,0 1.865,0.165 2.595,0.495c0.73,0.33 1.355,0.775 1.875,1.335c0.52,0.56 0.945,1.205 1.275,1.935c0.33,0.73 0.59,1.5 0.78,2.31c0.19,0.81 0.32,1.64 0.39,2.49c0.07,0.85 0.105,1.655 0.105,2.415c0,0.78 -0.035,1.59 -0.105,2.43c-0.07,0.84 -0.2,1.665 -0.39,2.475c-0.19,0.81 -0.45,1.58 -0.78,2.31c-0.33,0.73 -0.755,1.375 -1.275,1.935c-0.52,0.56 -1.145,1.005 -1.875,1.335c-0.73,0.33 -1.595,0.495 -2.595,0.495c-1,0 -1.865,-0.165 -2.595,-0.495c-0.73,-0.33 -1.355,-0.775 -1.875,-1.335c-0.52,-0.56 -0.945,-1.205 -1.275,-1.935c-0.33,-0.73 -0.59,-1.5 -0.78,-2.31c-0.19,-0.81 -0.32,-1.635 -0.39,-2.475c-0.07,-0.84 -0.105,-1.65 -0.105,-2.43ZM1176.32,104.13c0,0.56 0.02,1.175 0.06,1.845c0.04,0.67 0.12,1.35 0.24,2.04c0.12,0.69 0.295,1.365 0.525,2.025c0.23,0.66 0.53,1.245 0.9,1.755c0.37,0.51 0.825,0.92 1.365,1.23c0.54,0.31 1.19,0.465 1.95,0.465c0.74,0 1.385,-0.155 1.935,-0.465c0.55,-0.31 1.01,-0.72 1.38,-1.23c0.37,-0.51 0.67,-1.095 0.9,-1.755c0.23,-0.66 0.405,-1.335 0.525,-2.025c0.12,-0.69 0.2,-1.37 0.24,-2.04c0.04,-0.67 0.06,-1.285 0.06,-1.845c0,-0.54 -0.02,-1.15 -0.06,-1.83c-0.04,-0.68 -0.12,-1.365 -0.24,-2.055c-0.12,-0.69 -0.295,-1.365 -0.525,-2.025c-0.23,-0.66 -0.53,-1.245 -0.9,-1.755c-0.37,-0.51 -0.83,-0.92 -1.38,-1.23c-0.55,-0.31 -1.195,-0.465 -1.935,-0.465c-0.74,0 -1.385,0.155 -1.935,0.465c-0.55,0.31 -1.01,0.72 -1.38,1.23c-0.37,0.51 -0.67,1.095 -0.9,1.755c-0.23,0.66 -0.405,1.335 -0.525,2.025c-0.12,0.69 -0.2,1.375 -0.24,2.055c-0.04,0.68 -0.06,1.29 -0.06,1.83Z" style="fill:#666;fill-rule:nonzero;"/><path d="M1196.99,96.03l-0.03,0l-3.84,3.15l-1.11,-1.38l5.25,-4.29l1.53,0l0,21.24l-1.8,0l0,-18.72Z" style="fill:#666;fill-rule:nonzero;"/><path d="M1207.93,110.31c0.4,1.02 0.945,1.805 1.635,2.355c0.69,0.55 1.635,0.825 2.835,0.825c0.78,0 1.47,-0.12 2.07,-0.36c0.6,-0.24 1.095,-0.57 1.485,-0.99c0.39,-0.42 0.685,-0.91 0.885,-1.47c0.2,-0.56 0.3,-1.16 0.3,-1.8c0,-0.78 -0.165,-1.45 -0.495,-2.01c-0.33,-0.56 -0.76,-1.015 -1.29,-1.365c-0.53,-0.35 -1.13,-0.605 -1.8,-0.765c-0.67,-0.16 -1.345,-0.24 -2.025,-0.24l-0.78,0l0,-1.8l0.9,0c0.56,0 1.125,-0.075 1.695,-0.225c0.57,-0.15 1.08,-0.385 1.53,-0.705c0.45,-0.32 0.815,-0.735 1.095,-1.245c0.28,-0.51 0.42,-1.125 0.42,-1.845c0,-1.14 -0.355,-2.075 -1.065,-2.805c-0.71,-0.73 -1.665,-1.095 -2.865,-1.095c-0.88,0 -1.67,0.225 -2.37,0.675c-0.7,0.45 -1.25,1.055 -1.65,1.815l-1.71,-0.96c0.58,-1.1 1.375,-1.9 2.385,-2.4c1.01,-0.5 2.125,-0.75 3.345,-0.75c0.8,0 1.56,0.115 2.28,0.345c0.72,0.23 1.35,0.57 1.89,1.02c0.54,0.45 0.965,1.015 1.275,1.695c0.31,0.68 0.465,1.48 0.465,2.4c0,1.16 -0.32,2.185 -0.96,3.075c-0.64,0.89 -1.58,1.505 -2.82,1.845l0,0.06c0.68,0.12 1.295,0.345 1.845,0.675c0.55,0.33 1.025,0.735 1.425,1.215c0.4,0.48 0.71,1.02 0.93,1.62c0.22,0.6 0.33,1.24 0.33,1.92c0,0.84 -0.135,1.63 -0.405,2.37c-0.27,0.74 -0.68,1.385 -1.23,1.935c-0.55,0.55 -1.235,0.985 -2.055,1.305c-0.82,0.32 -1.78,0.48 -2.88,0.48c-1.6,0 -2.955,-0.335 -4.065,-1.005c-1.11,-0.67 -1.945,-1.725 -2.505,-3.165l1.95,-0.63Z" style="fill:#666;fill-rule:nonzero;"/><path d="M1251.19,93.75c-0.66,0.82 -1.23,1.735 -1.71,2.745c-0.48,1.01 -0.885,2.055 -1.215,3.135c-0.33,1.08 -0.575,2.17 -0.735,3.27c-0.16,1.1 -0.24,2.17 -0.24,3.21c0,2.34 0.34,4.51 1.02,6.51c0.68,2 1.64,3.97 2.88,5.91l-1.41,0.9c-0.7,-0.96 -1.315,-1.985 -1.845,-3.075c-0.53,-1.09 -0.975,-2.205 -1.335,-3.345c-0.36,-1.14 -0.635,-2.29 -0.825,-3.45c-0.19,-1.16 -0.285,-2.31 -0.285,-3.45c0,-2.38 0.365,-4.73 1.095,-7.05c0.73,-2.32 1.755,-4.41 3.075,-6.27l1.53,0.96Z" style="fill:#666;fill-rule:nonzero;"/><path d="M1252.79,112.65l7.98,-8.43c0.36,-0.36 0.72,-0.745 1.08,-1.155c0.36,-0.41 0.685,-0.84 0.975,-1.29c0.29,-0.45 0.525,-0.925 0.705,-1.425c0.18,-0.5 0.27,-1.04 0.27,-1.62c0,-1.24 -0.4,-2.21 -1.2,-2.91c-0.8,-0.7 -1.81,-1.05 -3.03,-1.05c-1.1,0 -2.03,0.32 -2.79,0.96c-0.76,0.64 -1.25,1.48 -1.47,2.52l-2.1,-0.21c0.34,-1.64 1.09,-2.865 2.25,-3.675c1.16,-0.81 2.56,-1.215 4.2,-1.215c0.82,0 1.6,0.125 2.34,0.375c0.74,0.25 1.39,0.605 1.95,1.065c0.56,0.46 1.005,1.025 1.335,1.695c0.33,0.67 0.495,1.435 0.495,2.295c0,0.82 -0.125,1.58 -0.375,2.28c-0.25,0.7 -0.58,1.365 -0.99,1.995c-0.41,0.63 -0.88,1.225 -1.41,1.785c-0.53,0.56 -1.065,1.12 -1.605,1.68l-6.63,6.81l11.16,0l0,1.62l-13.14,0l0,-2.1Z" style="fill:#666;fill-rule:nonzero;"/><path d="M1274.99,96.03l-0.03,0l-3.84,3.15l-1.11,-1.38l5.25,-4.29l1.53,0l0,21.24l-1.8,0l0,-18.72Z" style="fill:#666;fill-rule:nonzero;"/><path d="M1283.99,112.65l7.98,-8.43c0.36,-0.36 0.72,-0.745 1.08,-1.155c0.36,-0.41 0.685,-0.84 0.975,-1.29c0.29,-0.45 0.525,-0.925 0.705,-1.425c0.18,-0.5 0.27,-1.04 0.27,-1.62c0,-1.24 -0.4,-2.21 -1.2,-2.91c-0.8,-0.7 -1.81,-1.05 -3.03,-1.05c-1.1,0 -2.03,0.32 -2.79,0.96c-0.76,0.64 -1.25,1.48 -1.47,2.52l-2.1,-0.21c0.34,-1.64 1.09,-2.865 2.25,-3.675c1.16,-0.81 2.56,-1.215 4.2,-1.215c0.82,0 1.6,0.125 2.34,0.375c0.74,0.25 1.39,0.605 1.95,1.065c0.56,0.46 1.005,1.025 1.335,1.695c0.33,0.67 0.495,1.435 0.495,2.295c0,0.82 -0.125,1.58 -0.375,2.28c-0.25,0.7 -0.58,1.365 -0.99,1.995c-0.41,0.63 -0.88,1.225 -1.41,1.785c-0.53,0.56 -1.065,1.12 -1.605,1.68l-6.63,6.81l11.16,0l0,1.62l-13.14,0l0,-2.1Z" style="fill:#666;fill-rule:nonzero;"/><path d="M1298.71,118.47c0.66,-0.82 1.23,-1.73 1.71,-2.73c0.48,-1 0.885,-2.04 1.215,-3.12c0.33,-1.08 0.575,-2.175 0.735,-3.285c0.16,-1.11 0.24,-2.185 0.24,-3.225c0,-1.16 -0.09,-2.28 -0.27,-3.36c-0.18,-1.08 -0.435,-2.13 -0.765,-3.15c-0.33,-1.02 -0.735,-2.015 -1.215,-2.985c-0.48,-0.97 -1.03,-1.945 -1.65,-2.925l1.41,-0.9c0.7,0.96 1.315,1.985 1.845,3.075c0.53,1.09 0.975,2.205 1.335,3.345c0.36,1.14 0.635,2.29 0.825,3.45c0.19,1.16 0.285,2.31 0.285,3.45c0,2.38 -0.365,4.73 -1.095,7.05c-0.73,2.32 -1.755,4.41 -3.075,6.27l-1.53,-0.96Z" style="fill:#666;fill-rule:nonzero;"/><path d="M1327.49,95.13l-8.76,0l-0.09,6.75c0.46,-0.24 0.96,-0.4 1.5,-0.48c0.54,-0.08 1.07,-0.12 1.59,-0.12c1.02,0 1.935,0.185 2.745,0.555c0.81,0.37 1.5,0.875 2.07,1.515c0.57,0.64 1.01,1.385 1.32,2.235c0.31,0.85 0.465,1.755 0.465,2.715c0,1.14 -0.205,2.14 -0.615,3c-0.41,0.86 -0.945,1.57 -1.605,2.13c-0.66,0.56 -1.39,0.98 -2.19,1.26c-0.8,0.28 -1.59,0.42 -2.37,0.42c-1.56,0 -2.865,-0.32 -3.915,-0.96c-1.05,-0.64 -1.865,-1.52 -2.445,-2.64l1.86,-0.93c0.18,0.4 0.425,0.775 0.735,1.125c0.31,0.35 0.665,0.66 1.065,0.93c0.4,0.27 0.83,0.48 1.29,0.63c0.46,0.15 0.93,0.225 1.41,0.225c0.48,0 1,-0.105 1.56,-0.315c0.56,-0.21 1.08,-0.525 1.56,-0.945c0.48,-0.42 0.88,-0.95 1.2,-1.59c0.32,-0.64 0.48,-1.38 0.48,-2.22c0,-0.76 -0.135,-1.475 -0.405,-2.145c-0.27,-0.67 -0.645,-1.255 -1.125,-1.755c-0.48,-0.5 -1.045,-0.895 -1.695,-1.185c-0.65,-0.29 -1.355,-0.435 -2.115,-0.435c-0.76,0 -1.5,0.135 -2.22,0.405c-0.72,0.27 -1.38,0.615 -1.98,1.035l0.18,-10.83l10.5,0l0,1.62Z" style="fill:#666;fill-rule:nonzero;"/><path d="M1330.34,104.13c0,-0.76 0.035,-1.565 0.105,-2.415c0.07,-0.85 0.2,-1.68 0.39,-2.49c0.19,-0.81 0.45,-1.58 0.78,-2.31c0.33,-0.73 0.755,-1.375 1.275,-1.935c0.52,-0.56 1.145,-1.005 1.875,-1.335c0.73,-0.33 1.595,-0.495 2.595,-0.495c1,0 1.865,0.165 2.595,0.495c0.73,0.33 1.355,0.775 1.875,1.335c0.52,0.56 0.945,1.205 1.275,1.935c0.33,0.73 0.59,1.5 0.78,2.31c0.19,0.81 0.32,1.64 0.39,2.49c0.07,0.85 0.105,1.655 0.105,2.415c0,0.78 -0.035,1.59 -0.105,2.43c-0.07,0.84 -0.2,1.665 -0.39,2.475c-0.19,0.81 -0.45,1.58 -0.78,2.31c-0.33,0.73 -0.755,1.375 -1.275,1.935c-0.52,0.56 -1.145,1.005 -1.875,1.335c-0.73,0.33 -1.595,0.495 -2.595,0.495c-1,0 -1.865,-0.165 -2.595,-0.495c-0.73,-0.33 -1.355,-0.775 -1.875,-1.335c-0.52,-0.56 -0.945,-1.205 -1.275,-1.935c-0.33,-0.73 -0.59,-1.5 -0.78,-2.31c-0.19,-0.81 -0.32,-1.635 -0.39,-2.475c-0.07,-0.84 -0.105,-1.65 -0.105,-2.43ZM1332.32,104.13c0,0.56 0.02,1.175 0.06,1.845c0.04,0.67 0.12,1.35 0.24,2.04c0.12,0.69 0.295,1.365 0.525,2.025c0.23,0.66 0.53,1.245 0.9,1.755c0.37,0.51 0.825,0.92 1.365,1.23c0.54,0.31 1.19,0.465 1.95,0.465c0.74,0 1.385,-0.155 1.935,-0.465c0.55,-0.31 1.01,-0.72 1.38,-1.23c0.37,-0.51 0.67,-1.095 0.9,-1.755c0.23,-0.66 0.405,-1.335 0.525,-2.025c0.12,-0.69 0.2,-1.37 0.24,-2.04c0.04,-0.67 0.06,-1.285 0.06,-1.845c0,-0.54 -0.02,-1.15 -0.06,-1.83c-0.04,-0.68 -0.12,-1.365 -0.24,-2.055c-0.12,-0.69 -0.295,-1.365 -0.525,-2.025c-0.23,-0.66 -0.53,-1.245 -0.9,-1.755c-0.37,-0.51 -0.83,-0.92 -1.38,-1.23c-0.55,-0.31 -1.195,-0.465 -1.935,-0.465c-0.74,0 -1.385,0.155 -1.935,0.465c-0.55,0.31 -1.01,0.72 -1.38,1.23c-0.37,0.51 -0.67,1.095 -0.9,1.755c-0.23,0.66 -0.405,1.335 -0.525,2.025c-0.12,0.69 -0.2,1.375 -0.24,2.055c-0.04,0.68 -0.06,1.29 -0.06,1.83Z" style="fill:#666;fill-rule:nonzero;"/><path d="M1358.68,95.13l-8.76,0l-0.09,6.75c0.46,-0.24 0.96,-0.4 1.5,-0.48c0.54,-0.08 1.07,-0.12 1.59,-0.12c1.02,0 1.935,0.185 2.745,0.555c0.81,0.37 1.5,0.875 2.07,1.515c0.57,0.64 1.01,1.385 1.32,2.235c0.31,0.85 0.465,1.755 0.465,2.715c0,1.14 -0.205,2.14 -0.615,3c-0.41,0.86 -0.945,1.57 -1.605,2.13c-0.66,0.56 -1.39,0.98 -2.19,1.26c-0.8,0.28 -1.59,0.42 -2.37,0.42c-1.56,0 -2.865,-0.32 -3.915,-0.96c-1.05,-0.64 -1.865,-1.52 -2.445,-2.64l1.86,-0.93c0.18,0.4 0.425,0.775 0.735,1.125c0.31,0.35 0.665,0.66 1.065,0.93c0.4,0.27 0.83,0.48 1.29,0.63c0.46,0.15 0.93,0.225 1.41,0.225c0.48,0 1,-0.105 1.56,-0.315c0.56,-0.21 1.08,-0.525 1.56,-0.945c0.48,-0.42 0.88,-0.95 1.2,-1.59c0.32,-0.64 0.48,-1.38 0.48,-2.22c0,-0.76 -0.135,-1.475 -0.405,-2.145c-0.27,-0.67 -0.645,-1.255 -1.125,-1.755c-0.48,-0.5 -1.045,-0.895 -1.695,-1.185c-0.65,-0.29 -1.355,-0.435 -2.115,-0.435c-0.76,0 -1.5,0.135 -2.22,0.405c-0.72,0.27 -1.38,0.615 -1.98,1.035l0.18,-10.83l10.5,0l0,1.62Z" style="fill:#666;fill-rule:nonzero;"/><rect x="1362.05" y="106.83" width="7.41" height="1.62" style="fill:#666;fill-rule:nonzero;"/><path d="M1378.28,96.03l-0.03,0l-3.84,3.15l-1.11,-1.38l5.25,-4.29l1.53,0l0,21.24l-1.8,0l0,-18.72Z" style="fill:#666;fill-rule:nonzero;"/><path d="M1395.91,109.53l-9.18,0l0,-2.13l8.49,-13.89l2.49,0l0,14.4l3.24,0l0,1.62l-3.24,0l0,5.22l-1.8,0l0,-5.22ZM1395.91,95.49l-0.06,0l-7.5,12.42l7.56,0l0,-12.42Z" style="fill:#666;fill-rule:nonzero;"/><path d="M1403.62,98.67c0,-0.82 0.15,-1.57 0.45,-2.25c0.3,-0.68 0.71,-1.26 1.23,-1.74c0.52,-0.48 1.135,-0.855 1.845,-1.125c0.71,-0.27 1.475,-0.405 2.295,-0.405c0.82,0 1.585,0.135 2.295,0.405c0.71,0.27 1.325,0.645 1.845,1.125c0.52,0.48 0.93,1.06 1.23,1.74c0.3,0.68 0.45,1.43 0.45,2.25c0,0.5 -0.08,0.995 -0.24,1.485c-0.16,0.49 -0.385,0.95 -0.675,1.38c-0.29,0.43 -0.645,0.805 -1.065,1.125c-0.42,0.32 -0.89,0.55 -1.41,0.69l0,0.03c0.68,0.14 1.275,0.385 1.785,0.735c0.51,0.35 0.94,0.77 1.29,1.26c0.35,0.49 0.615,1.03 0.795,1.62c0.18,0.59 0.27,1.205 0.27,1.845c0,0.96 -0.165,1.825 -0.495,2.595c-0.33,0.77 -0.79,1.425 -1.38,1.965c-0.59,0.54 -1.285,0.96 -2.085,1.26c-0.8,0.3 -1.67,0.45 -2.61,0.45c-0.94,0 -1.81,-0.15 -2.61,-0.45c-0.8,-0.3 -1.495,-0.72 -2.085,-1.26c-0.59,-0.54 -1.05,-1.195 -1.38,-1.965c-0.33,-0.77 -0.495,-1.635 -0.495,-2.595c0,-0.64 0.09,-1.255 0.27,-1.845c0.18,-0.59 0.445,-1.13 0.795,-1.62c0.35,-0.49 0.78,-0.91 1.29,-1.26c0.51,-0.35 1.105,-0.595 1.785,-0.735l0,-0.03c-0.52,-0.14 -0.99,-0.37 -1.41,-0.69c-0.42,-0.32 -0.775,-0.695 -1.065,-1.125c-0.29,-0.43 -0.515,-0.89 -0.675,-1.38c-0.16,-0.49 -0.24,-0.985 -0.24,-1.485ZM1405.61,98.67c0,0.54 0.095,1.045 0.285,1.515c0.19,0.47 0.45,0.88 0.78,1.23c0.33,0.35 0.73,0.63 1.2,0.84c0.47,0.21 0.995,0.315 1.575,0.315c0.56,0 1.08,-0.105 1.56,-0.315c0.48,-0.21 0.885,-0.49 1.215,-0.84c0.33,-0.35 0.59,-0.76 0.78,-1.23c0.19,-0.47 0.285,-0.975 0.285,-1.515c0,-1.18 -0.365,-2.125 -1.095,-2.835c-0.73,-0.71 -1.645,-1.065 -2.745,-1.065c-1.1,0 -2.015,0.355 -2.745,1.065c-0.73,0.71 -1.095,1.655 -1.095,2.835ZM1404.86,108.84c0,0.64 0.11,1.24 0.33,1.8c0.22,0.56 0.53,1.05 0.93,1.47c0.4,0.42 0.88,0.755 1.44,1.005c0.56,0.25 1.19,0.375 1.89,0.375c0.7,0 1.33,-0.125 1.89,-0.375c0.56,-0.25 1.04,-0.585 1.44,-1.005c0.4,-0.42 0.71,-0.91 0.93,-1.47c0.22,-0.56 0.33,-1.16 0.33,-1.8c0,-0.7 -0.12,-1.335 -0.36,-1.905c-0.24,-0.57 -0.565,-1.06 -0.975,-1.47c-0.41,-0.41 -0.895,-0.725 -1.455,-0.945c-0.56,-0.22 -1.16,-0.33 -1.8,-0.33c-0.64,0 -1.24,0.11 -1.8,0.33c-0.56,0.22 -1.045,0.535 -1.455,0.945c-0.41,0.41 -0.735,0.9 -0.975,1.47c-0.24,0.57 -0.36,1.205 -0.36,1.905Z" style="fill:#666;fill-rule:nonzero;"/><path d="M1430.78,95.13l-8.76,0l-0.09,6.75c0.46,-0.24 0.96,-0.4 1.5,-0.48c0.54,-0.08 1.07,-0.12 1.59,-0.12c1.02,0 1.935,0.185 2.745,0.555c0.81,0.37 1.5,0.875 2.07,1.515c0.57,0.64 1.01,1.385 1.32,2.235c0.31,0.85 0.465,1.755 0.465,2.715c0,1.14 -0.205,2.14 -0.615,3c-0.41,0.86 -0.945,1.57 -1.605,2.13c-0.66,0.56 -1.39,0.98 -2.19,1.26c-0.8,0.28 -1.59,0.42 -2.37,0.42c-1.56,0 -2.865,-0.32 -3.915,-0.96c-1.05,-0.64 -1.865,-1.52 -2.445,-2.64l1.86,-0.93c0.18,0.4 0.425,0.775 0.735,1.125c0.31,0.35 0.665,0.66 1.065,0.93c0.4,0.27 0.83,0.48 1.29,0.63c0.46,0.15 0.93,0.225 1.41,0.225c0.48,0 1,-0.105 1.56,-0.315c0.56,-0.21 1.08,-0.525 1.56,-0.945c0.48,-0.42 0.88,-0.95 1.2,-1.59c0.32,-0.64 0.48,-1.38 0.48,-2.22c0,-0.76 -0.135,-1.475 -0.405,-2.145c-0.27,-0.67 -0.645,-1.255 -1.125,-1.755c-0.48,-0.5 -1.045,-0.895 -1.695,-1.185c-0.65,-0.29 -1.355,-0.435 -2.115,-0.435c-0.76,0 -1.5,0.135 -2.22,0.405c-0.72,0.27 -1.38,0.615 -1.98,1.035l0.18,-10.83l10.5,0l0,1.62Z" style="fill:#666;fill-rule:nonzero;"/></g></g></svg>