<?xml version="1.0" encoding="utf-8"?>
<!-- Generator: Adobe Illustrator 18.0.0, SVG Export Plug-In . SVG Version: 6.00 Build 0)  -->
<!DOCTYPE svg PUBLIC "-//W3C//DTD SVG 1.1//EN" "http://www.w3.org/Graphics/SVG/1.1/DTD/svg11.dtd">
<svg version="1.1" id="Layer_1" xmlns="http://www.w3.org/2000/svg" xmlns:xlink="http://www.w3.org/1999/xlink" x="0px" y="0px"
	 viewBox="0 0 288.7 50" enable-background="new 0 0 288.7 50" xml:space="preserve">
<g>
	<path fill="#F27321" d="M255.3,0v0.7h5.8v47.8h-5.5V49h15.1v-0.7h-5.2V24.6h5.4h0.6c4.4,0,5.9,1.8,6,7.4c0,1,0.1,2.4,0.1,3.9
		l0.2,3.7c0.4,7.8,2.3,10,8.9,10c1,0,1.3-0.1,2.1-0.2l-0.1-0.5c-0.8,0.1-1.5,0.1-2,0.1c-3.5,0-4.3-1.5-4.8-8.4l-0.2-2.6l-0.1-2.5
		c-0.3-7.1-3.1-10.7-8.9-11.4c2.2,0,3.1-0.3,4.9-1.6c3.8-2.7,5.1-5.6,5.1-10.9c0-7.4-3.3-11.6-9.1-11.6h-0.2H255.3z M265.4,0.7h6.5
		h0.6c2.7,0,4.9,2,5.4,5.2c0.3,1.8,0.6,4.5,0.6,6.9c0,8.2-1.8,11.2-7.1,11.2h-0.4h-5.5V0.7z M253,16.3V0h-26.6v0.7h5.6v47.8h-5.8V49
		h27.6V30h-0.5v0.5v0.1c-0.1,3.2-0.7,6.5-1.8,9.8c-1.8,5.4-4.3,8-7.5,8h-0.6h-6.9V22.9h2.3h0.7c3.3,0,5.2,3.7,5.5,10.3h0.4V11.1
		h-0.4v0.5c0,5.7-2.5,10.6-5.5,10.5H239h-2.3V0.7h7.4h0.4c4.2,0,7.2,5.8,8.1,15.7H253z M224.7,0h-15.4v0.7h5.3v20.6h-14.7V0.6h5.6V0
		h-15.3v0.7h5.4v47.8h-5.4V49h15.3v-0.7h-5.6V21.9h14.7v26.5h-5.3V49h15.4v-0.7h-5.7V0.6h5.7V0z M189.3,0h-26.5v20.2h0.4v-0.7
		c0-10.5,3.8-18.9,8.8-18.9h1.8v47.8h-5.3V49h15.3v-0.7h-5.6V0.7h-0.1h1.6h0.4c3.6,0.3,5.8,2.9,7.4,8.9c0.9,3.2,1.3,6.5,1.3,9.8v0.9
		h0.4V0z M162,0h-13.6v0.7h0.4c4.4,0,6,2.4,6,8.6v0.5v25.5v1.1c0,8.5-3,12.7-8.9,12.7c-4.9,0-7.6-3.1-7.5-9v-0.7V0.6h5.9V0h-15.7
		v0.7h5.6v36.4v0.7c0,7.7,4.2,12.3,11.3,12.3c6.6,0,9.8-4.4,9.8-13.8v-0.7V9.9c0-6.8,1.6-9.1,6.6-9.2V0z M115.6,0h-15.4v0.7h5.7
		v47.8h-5.7V49h27.4V27.4h-0.4c-0.4,6.4-0.8,8-2.6,13.1c-2,5.4-4.7,7.9-8.9,7.9h-5.4V0.6h5.4V0z M80.7,0h-10l-7.8,37.9L55.2,0h-11
		v0.7h1.6c3.2,0.1,4.5,1.5,4.5,4.9V6v35.2v0.7c0,4.1-1.6,6.5-4.4,6.5h-1.5V49H57v-0.6h-0.9c-3.6,0-5.2-2-5.2-6.5v-0.6V1.8l9.9,47.4
		h0.5L71.2,2v46.5h-5.4V49h15.1v-0.7h-5.4V0.6h5.2V0z M34.5,0H19.1v0.7h5.3v20.6H9.8V0.6h5.6V0H0v0.7h5.4v47.8H0V49h15.3v-0.7H9.8
		V21.9h14.7v26.5h-5.3V49h15.4v-0.7h-5.7V0.6h5.7V0z"/>
	<path fill="#F27321" d="M38.7,49c1,0,1.8-0.8,1.8-1.7c0-0.9-0.8-1.7-1.8-1.7s-1.8,0.8-1.8,1.7C36.9,48.2,37.7,49,38.7,49"/>
	<path fill="#F27321" d="M85.2,49c1,0,1.8-0.8,1.8-1.7c0-0.9-0.8-1.7-1.8-1.7s-1.8,0.8-1.8,1.7C83.3,48.2,84.1,49,85.2,49"/>
</g>
</svg>
