<?xml version="1.0" standalone="no"?><!DOCTYPE svg PUBLIC "-//W3C//DTD SVG 1.1//EN" "http://www.w3.org/Graphics/SVG/1.1/DTD/svg11.dtd"><svg width="100%" height="100%" viewBox="0 0 1432 121" version="1.1" xmlns="http://www.w3.org/2000/svg" xmlns:xlink="http://www.w3.org/1999/xlink" xml:space="preserve" style="fill-rule:evenodd;clip-rule:evenodd;stroke-linejoin:round;stroke-miterlimit:1.41421;"><g><g><path d="M163.436,0.337l1.022,0c6.982,0 13.964,-0.004 20.947,0.011c0.364,0.001 1.002,0.104 1.042,0.271c0.129,0.541 0.076,1.14 -0.004,1.703c-0.014,0.099 -0.494,0.187 -0.759,0.188c-3.232,0.013 -6.463,0.007 -9.695,0.009c-1.186,0.001 -1.188,0.004 -1.188,1.202c-0.001,36.874 -0.001,73.747 0,110.621c0,1.272 0.002,1.274 1.318,1.275c2.972,0.001 5.944,0 8.916,0c1.666,0 1.716,0.064 1.403,1.851l-34.948,0c-0.014,-0.314 -0.007,-0.649 -0.048,-0.977c-0.084,-0.691 0.223,-0.889 0.889,-0.885c3.519,0.024 7.04,0.011 10.56,0.01c0.259,0 0.56,0.075 0.768,-0.031c0.257,-0.13 0.523,-0.379 0.626,-0.639c0.108,-0.276 0.031,-0.626 0.031,-0.943c0.003,-34.998 0.006,-69.997 0.003,-104.995c0,-0.431 -0.067,-0.862 -0.103,-1.293c-0.095,-0.004 -0.19,-0.008 -0.285,-0.012c-0.156,0.558 -0.353,1.108 -0.462,1.675c-0.743,3.86 -1.442,7.728 -2.204,11.583c-0.863,4.367 -1.791,8.721 -2.664,13.086c-0.574,2.871 -1.076,5.756 -1.651,8.627c-0.562,2.809 -1.194,5.603 -1.759,8.411c-0.463,2.306 -0.852,4.625 -1.31,6.932c-0.453,2.275 -0.964,4.539 -1.425,6.812c-0.353,1.744 -0.661,3.496 -1.003,5.242c-0.358,1.832 -0.737,3.659 -1.099,5.49c-0.451,2.28 -0.887,4.564 -1.341,6.844c-0.471,2.365 -0.961,4.727 -1.435,7.092c-0.344,1.718 -0.673,3.439 -1.011,5.158c-0.47,2.391 -0.946,4.781 -1.413,7.172c-0.461,2.364 -0.903,4.732 -1.375,7.093c-0.455,2.275 -0.937,4.544 -1.405,6.817c-0.052,0.253 -0.096,0.509 -0.124,0.766c-0.107,0.958 -0.816,1.416 -1.684,0.981c-0.253,-0.126 -0.397,-0.6 -0.466,-0.94c-0.533,-2.615 -1.045,-5.235 -1.544,-7.857c-0.446,-2.339 -0.842,-4.688 -1.306,-7.023c-0.457,-2.303 -0.994,-4.589 -1.452,-6.891c-0.46,-2.308 -0.846,-4.631 -1.301,-6.939c-0.46,-2.339 -0.975,-4.667 -1.449,-7.004c-0.337,-1.661 -0.644,-3.328 -0.969,-4.992c-0.367,-1.883 -0.745,-3.764 -1.11,-5.648c-0.563,-2.899 -1.108,-5.802 -1.681,-8.699c-0.468,-2.366 -0.981,-4.723 -1.445,-7.089c-0.46,-2.337 -0.871,-4.684 -1.327,-7.022c-0.34,-1.741 -0.734,-3.472 -1.078,-5.212c-0.572,-2.9 -1.111,-5.806 -1.687,-8.705c-0.47,-2.364 -0.991,-4.718 -1.459,-7.083c-0.456,-2.307 -0.855,-4.626 -1.312,-6.933c-0.463,-2.332 -0.982,-4.654 -1.447,-6.986c-0.353,-1.774 -0.646,-3.559 -0.992,-5.333c-0.106,-0.54 -0.299,-1.062 -0.452,-1.592c-0.096,0.01 -0.193,0.02 -0.289,0.03c-0.042,0.315 -0.121,0.629 -0.121,0.944c-0.002,27.41 0.002,54.82 0.006,82.23c0.001,4.299 -0.11,8.602 0.037,12.896c0.107,3.104 0.611,6.187 2.06,9.012c1.018,1.984 2.401,3.624 4.649,4.231c1.018,0.275 2.087,0.387 3.141,0.491c1.366,0.135 2.74,0.189 4.158,0.282l0,1.817c-0.121,0.018 -0.257,0.055 -0.392,0.055c-9.262,-0.001 -18.524,-0.004 -27.785,-0.008c-1.184,0 -1.231,-0.068 -1.186,-1.2c0.018,-0.458 0.16,-0.686 0.646,-0.71c1.091,-0.055 2.181,-0.224 3.269,-0.208c5.081,0.076 7.258,-2.464 8.533,-6.832c1.068,-3.655 1.256,-7.407 1.254,-11.189c-0.016,-27.9 -0.01,-55.801 -0.026,-83.701c-0.001,-2.422 -0.207,-4.823 -1.17,-7.098c-0.966,-2.283 -2.82,-3.405 -5.141,-3.699c-2.332,-0.295 -4.695,-0.353 -7.193,-0.524c0,-0.469 -0.03,-1.037 0.02,-1.597c0.014,-0.15 0.25,-0.331 0.423,-0.4c0.174,-0.07 0.397,-0.021 0.6,-0.021c7.761,0 15.522,0.01 23.284,-0.014c0.829,-0.003 1.146,0.153 1.285,1.098c0.357,2.409 0.958,4.781 1.42,7.175c0.359,1.86 0.635,3.737 0.987,5.599c0.443,2.338 0.938,4.667 1.389,7.005c0.468,2.422 0.902,4.85 1.365,7.273c0.452,2.365 0.928,4.727 1.382,7.092c0.47,2.452 0.917,4.909 1.391,7.36c0.457,2.364 0.944,4.723 1.404,7.087c0.351,1.801 0.673,3.607 1.023,5.408c0.393,2.027 0.814,4.047 1.201,6.075c0.349,1.833 0.655,3.674 1.005,5.506c0.36,1.887 0.759,3.767 1.126,5.653c0.334,1.719 0.641,3.443 0.971,5.162c0.487,2.534 0.983,5.066 1.477,7.598c0.236,1.21 0.474,2.421 0.723,3.629c0.03,0.149 0.137,0.282 0.208,0.422c0.095,0.006 0.191,0.011 0.286,0.017c5.971,-29.689 11.941,-59.378 17.927,-89.145" style="fill:#f77707;fill-rule:nonzero;"/><path d="M43.344,117.489c-0.261,-1.872 -0.261,-1.872 1.501,-1.872c3.376,0 6.751,0.002 10.127,-0.002c1.086,-0.001 1.147,-0.059 1.148,-1.109c0.001,-20.196 -0.003,-40.393 0.015,-60.59c0.001,-0.842 -0.293,-1.092 -1.106,-1.09c-10.214,0.019 -20.428,0.019 -30.642,-0.001c-0.822,-0.001 -1.1,0.269 -1.1,1.1c0.018,20.197 0.013,40.393 0.016,60.59c0,1.036 0.07,1.099 1.159,1.1c3.376,0.004 6.752,0.002 10.128,0.002c1.744,0 1.744,0 1.495,1.853c-0.181,0.016 -0.374,0.048 -0.567,0.048c-11.455,0.001 -22.909,-0.003 -34.364,0.006c-0.675,0 -1.161,-0.015 -1.139,-0.934c0.018,-0.749 0.219,-0.997 0.988,-0.989c3.52,0.036 7.04,0.017 10.56,0.015c1.25,0 1.253,-0.003 1.253,-1.252c0.001,-24.986 0.001,-49.972 0.001,-74.958c0,-11.887 0,-23.775 0,-35.662c-0.001,-1.223 -0.003,-1.225 -1.254,-1.225c-3.52,-0.001 -7.041,-0.036 -10.56,0.023c-0.972,0.017 -0.965,-0.457 -0.979,-1.159c-0.016,-0.733 0.117,-1.069 0.983,-1.066c11.397,0.03 22.794,0.032 34.191,-0.002c0.942,-0.003 0.975,0.404 0.993,1.132c0.019,0.793 -0.153,1.106 -1.036,1.093c-3.548,-0.052 -7.097,-0.023 -10.646,-0.021c-1.204,0.001 -1.208,0.005 -1.208,1.196c-0.001,15.235 0,30.469 0,45.703c0,1.547 0.01,1.564 1.612,1.564c6.722,0.003 13.445,0.002 20.168,0.002c3.173,0 6.347,0.003 9.521,-0.002c1.492,-0.003 1.519,-0.037 1.519,-1.479c0,-15.234 0,-30.468 0,-45.702c0,-1.28 -0.002,-1.282 -1.293,-1.282c-3.549,-0.001 -7.098,-0.034 -10.646,0.022c-0.921,0.014 -0.947,-0.422 -0.939,-1.103c0.008,-0.652 -0.035,-1.125 0.913,-1.122c11.455,0.032 22.909,0.032 34.364,0.001c0.988,-0.003 0.861,0.544 0.877,1.16c0.017,0.639 -0.009,1.073 -0.888,1.062c-3.606,-0.048 -7.213,-0.001 -10.819,-0.035c-0.807,-0.008 -1.1,0.207 -1.099,1.064c0.019,36.989 0.018,73.978 0.002,110.967c0,0.828 0.263,1.104 1.092,1.096c3.549,-0.034 7.098,-0.016 10.647,-0.013c0.967,0.001 1.407,0.686 1.001,1.578c-0.059,0.13 -0.23,0.249 -0.373,0.289c-0.189,0.054 -0.4,0.03 -0.602,0.031c-11.483,0.002 -22.967,0.003 -34.45,0.003c-0.171,0 -0.342,-0.018 -0.564,-0.03" style="fill:#f77707;fill-rule:nonzero;"/><path d="M488.258,0.337c0.025,0.329 0.05,0.527 0.053,0.725c0.007,0.43 0.002,0.86 0.002,1.402c-0.379,0.02 -0.71,0.052 -1.041,0.052c-3.549,0.004 -7.097,0.001 -10.646,0.003c-1.216,0.001 -1.234,0.015 -1.234,1.185c-0.001,15.319 -0.001,30.639 0,45.959c0,1.208 0.101,1.317 1.346,1.317c10.069,0.005 20.138,0.005 30.207,0c1.23,-0.001 1.324,-0.113 1.325,-1.34c0.001,-15.291 0.001,-30.582 0,-45.873c0,-1.244 -0.004,-1.247 -1.255,-1.248c-3.491,-0.002 -6.982,0 -10.473,0l-1.112,0l0,-2.182l34.781,0c1.254,0 1.254,0 1.256,1.221c0.001,0.282 0,0.564 0,0.961l-0.991,0c-3.549,0 -7.098,0.02 -10.646,-0.015c-0.813,-0.009 -1.093,0.219 -1.093,1.069c0.019,36.958 0.016,73.916 0.017,110.874c0,1.136 0.032,1.168 1.164,1.169c3.404,0.003 6.809,0.001 10.213,0.001c1.364,0 1.365,0 1.34,1.328c-0.002,0.141 -0.024,0.281 -0.044,0.501l-35.975,0c-0.023,-0.038 -0.073,-0.085 -0.076,-0.135c-0.118,-1.694 -0.117,-1.694 1.568,-1.694c3.404,0 6.809,-0.017 10.213,0.012c0.806,0.007 1.126,-0.242 1.126,-1.087c-0.017,-20.196 -0.012,-40.391 -0.015,-60.587c0,-1.034 -0.086,-1.115 -1.154,-1.115c-10.185,-0.003 -20.369,-0.003 -30.553,0c-1.1,0 -1.168,0.069 -1.168,1.19c-0.002,20.138 -0.002,40.276 0,60.414c0,1.104 0.069,1.17 1.188,1.171c3.491,0.004 6.982,0.002 10.473,0.002c1.27,0 1.27,0.001 1.26,1.251c-0.002,0.172 -0.001,0.345 -0.001,0.562c-0.181,0.036 -0.341,0.096 -0.501,0.096c-11.511,0 -23.023,-0.005 -34.534,-0.01c-1.021,0 -1.482,-0.662 -1.017,-1.569c0.105,-0.205 0.571,-0.314 0.871,-0.316c3.52,-0.022 7.04,-0.013 10.56,-0.015c1.233,0 1.263,-0.026 1.263,-1.254c0.001,-36.871 0.001,-73.743 0,-110.614c0,-1.226 -0.006,-1.229 -1.264,-1.229c-3.491,-0.001 -6.982,0 -10.473,0l-0.918,0c-0.056,-0.164 -0.107,-0.244 -0.106,-0.322c0.02,-2.249 -0.211,-1.851 1.805,-1.854c11.021,-0.013 22.042,-0.006 33.062,-0.006l1.197,0Z" style="fill:#f77707;fill-rule:nonzero;"/><path d="M629.41,30.189c0,8.826 0,17.652 0.001,26.479c0,1.2 0.01,1.236 1.194,1.212c4.61,-0.091 9.219,-0.198 13.827,-0.307c1.982,-0.048 3.874,-0.533 5.662,-1.354c4.318,-1.982 6.489,-5.62 7.53,-10.051c0.957,-4.076 1.272,-8.239 1.418,-12.407c0.163,-4.664 0.121,-9.324 -0.441,-13.974c-0.357,-2.949 -0.852,-5.845 -1.909,-8.631c-1.219,-3.213 -3.059,-5.898 -6.375,-7.222c-2.2,-0.878 -4.517,-1.366 -6.891,-1.391c-4.268,-0.047 -8.538,-0.022 -12.807,-0.023c-1.205,-0.001 -1.208,0.003 -1.208,1.19c-0.001,8.826 -0.001,17.652 -0.001,26.479M682.522,117.516c-1.135,0 -2.224,0.029 -3.311,-0.006c-2.475,-0.078 -4.991,0.064 -7.416,-0.335c-5.086,-0.837 -9.099,-3.463 -11.693,-8.023c-2.009,-3.531 -3.011,-7.377 -3.423,-11.39c-0.675,-6.59 -0.163,-13.197 -0.258,-19.796c-0.036,-2.532 0.035,-5.102 -0.375,-7.583c-0.673,-4.064 -2.846,-8.482 -8.278,-9.967c-2.433,-0.665 -4.953,-0.705 -7.462,-0.71c-3.261,-0.008 -6.521,0.02 -9.781,-0.018c-0.863,-0.01 -1.133,0.262 -1.132,1.141c0.023,17.859 0.017,35.719 0.018,53.579c0,1.173 0.034,1.207 1.223,1.208c3.203,0.003 6.405,0.015 9.608,-0.01c0.674,-0.005 0.997,0.147 0.985,0.905c-0.012,0.719 -0.193,1.021 -0.981,1.02c-11.051,-0.022 -22.101,-0.02 -33.152,-0.003c-0.693,0.001 -0.969,-0.187 -0.973,-0.923c-0.003,-0.745 0.215,-1.01 0.987,-1.003c3.549,0.034 7.098,0.017 10.647,0.014c1.137,-0.001 1.166,-0.03 1.166,-1.165c0.001,-36.931 0.001,-73.862 0,-110.794c0,-1.133 -0.004,-1.137 -1.165,-1.138c-3.549,-0.002 -7.098,-0.036 -10.646,0.023c-0.962,0.016 -0.978,-0.438 -0.985,-1.152c-0.007,-0.721 0.096,-1.076 0.975,-1.074c13.07,0.034 26.141,-0.04 39.21,0.081c3.339,0.031 6.716,0.351 9.911,1.604c4.066,1.596 6.77,4.611 8.739,8.353c1.75,3.326 2.826,6.885 3.514,10.591c0.818,4.403 0.978,8.83 0.533,13.244c-0.634,6.292 -2.505,12.171 -6.892,16.967c-2.867,3.135 -6.389,5.246 -10.466,6.427c-0.825,0.239 -1.667,0.418 -2.491,0.659c-0.216,0.063 -0.394,0.257 -0.589,0.391c0.212,0.149 0.408,0.394 0.638,0.433c2.507,0.419 4.799,1.374 6.963,2.681c4.077,2.463 6.726,6.035 8.251,10.504c1.148,3.366 1.771,6.843 1.983,10.373c0.203,3.361 0.193,6.734 0.269,10.102c0.078,3.456 -0.009,6.925 0.276,10.363c0.173,2.088 0.752,4.184 1.434,6.179c1.28,3.746 4.188,5.583 7.987,6.064c1.682,0.213 3.391,0.217 5.089,0.278c1.108,0.04 1.111,0.01 1.098,1.16c-0.003,0.224 -0.021,0.448 -0.035,0.746" style="fill:#f77707;fill-rule:nonzero;"/><path d="M597.356,71.716l0.937,0l0,45.8c-0.483,0 -0.963,0 -1.443,0c-19.993,0 -39.986,0 -59.98,0c-1.113,0 -1.068,-0.002 -1.085,-1.077c-0.012,-0.751 0.364,-0.833 0.969,-0.83c3.519,0.016 7.039,0.01 10.559,0.007c1.185,-0.001 1.201,-0.018 1.201,-1.219c0.001,-37.073 0.001,-74.145 0.001,-111.217c0,-1.23 -0.004,-1.233 -1.254,-1.234c-3.491,-0.001 -6.982,0.001 -10.473,-0.002c-0.309,0 -0.619,-0.025 -0.964,-0.041l0,-1.498l61.059,0l0,38.351c-0.51,0.116 -0.916,0.189 -1.028,-0.565c-0.496,-3.349 -1.045,-6.69 -1.551,-10.038c-0.866,-5.738 -2.225,-11.331 -4.865,-16.543c-1.147,-2.265 -2.389,-4.477 -4.339,-6.185c-2.124,-1.86 -4.653,-2.811 -7.421,-2.857c-5.913,-0.1 -11.828,-0.025 -17.742,-0.065c-0.999,-0.006 -0.944,0.566 -0.944,1.235c0.005,11.309 0.003,22.618 0.003,33.927c0,4.53 -0.001,9.059 0.001,13.589c0.001,1.201 0.091,1.314 1.255,1.334c2.302,0.039 4.614,0.196 6.88,-0.395c3.489,-0.911 5.804,-3.284 7.378,-6.339c1.626,-3.159 2.552,-6.575 2.907,-10.135c0.297,-2.973 0.661,-5.939 1,-8.945c0.801,-0.183 1.01,0.187 1.007,0.907c-0.015,4.039 -0.007,8.078 -0.007,12.117c0,12.81 0,25.619 0,38.429c0,0.173 0.017,0.348 -0.003,0.519c-0.046,0.39 0.176,0.957 -0.527,0.964c-0.717,0.007 -0.498,-0.57 -0.526,-0.955c-0.268,-3.699 -0.636,-7.381 -1.49,-11.005c-0.635,-2.695 -1.382,-5.338 -2.778,-7.752c-1.564,-2.703 -3.883,-4.329 -6.963,-4.894c-2.412,-0.442 -4.815,-0.747 -7.274,-0.339c-0.677,0.112 -0.909,0.363 -0.861,0.99c0.014,0.173 0.001,0.347 0.001,0.52c0,19.271 0,38.543 0,57.815c0.001,1.526 0.003,1.572 1.528,1.518c4.951,-0.172 9.903,-0.334 14.851,-0.589c5.411,-0.279 9.284,-3.287 12.404,-7.397c2.236,-2.944 3.512,-6.403 4.636,-9.881c1.031,-3.189 1.988,-6.419 2.687,-9.693c0.652,-3.051 0.934,-6.182 1.355,-9.281c0.317,-2.331 0.596,-4.666 0.899,-7.051" style="fill:#f77707;fill-rule:nonzero;"/><path d="M397.958,117.461c-0.256,-1.844 -0.256,-1.844 1.433,-1.844c3.375,0 6.751,0.003 10.126,-0.002c1.036,-0.001 1.149,-0.113 1.156,-1.139c0.009,-1.413 0.003,-2.827 0.003,-4.241c0,-35.254 0,-70.509 0,-105.763c0,-0.289 -0.024,-0.579 0.004,-0.865c0.081,-0.824 -0.267,-1.157 -1.098,-1.095c-1.976,0.147 -3.988,0.072 -5.922,0.43c-2.536,0.47 -4.618,1.922 -6.239,3.928c-2.946,3.644 -5.097,7.741 -6.512,12.198c-0.789,2.485 -1.51,5.007 -2.031,7.559c-0.516,2.525 -0.794,5.104 -1.082,7.669c-0.324,2.888 -0.559,5.786 -0.801,8.682c-0.163,1.948 -0.27,3.9 -0.404,5.876c-0.654,0.161 -1.019,0.033 -1.013,-0.655c0.002,-0.202 -0.002,-0.404 -0.002,-0.606c0,-15.348 0,-30.697 0,-46.045c0,-1.21 0.001,-1.211 1.22,-1.211c19.416,0 38.832,0 58.248,0c1.182,0 1.183,0.001 1.183,1.15c0,15.435 0.001,30.87 0,46.304c0,1.114 -0.119,1.216 -1.225,1.034c-0.016,-0.241 -0.032,-0.494 -0.05,-0.748c-0.294,-4.104 -0.511,-8.216 -0.907,-12.31c-0.299,-3.085 -0.703,-6.172 -1.279,-9.216c-1.285,-6.792 -3.581,-13.204 -7.73,-18.829c-1.721,-2.334 -3.912,-4.185 -6.796,-4.741c-2.151,-0.414 -4.4,-0.334 -6.607,-0.422c-0.192,-0.007 -0.478,0.338 -0.578,0.579c-0.103,0.247 -0.037,0.568 -0.037,0.856c-0.001,36.697 -0.001,73.394 -0.001,110.091c0,1.531 0.001,1.531 1.543,1.532c3.376,0 6.751,0 10.127,0c1.27,0 1.271,0.001 1.246,1.273c-0.003,0.169 -0.021,0.339 -0.036,0.571l-35.939,0Z" style="fill:#f77707;fill-rule:nonzero;"/><path d="M274.29,0.383c0.266,2.136 0.266,2.136 -1.693,2.136c-3.318,0 -6.636,0.022 -9.953,-0.016c-0.843,-0.01 -1.157,0.206 -1.156,1.11c0.02,36.928 0.017,73.855 0.018,110.783c0,1.181 0.038,1.241 1.215,1.215c3.025,-0.065 6.057,-0.044 9.071,-0.267c4.555,-0.336 8.911,-1.414 12.702,-4.15c2.54,-1.832 4.291,-4.33 5.794,-7.01c1.765,-3.149 3.032,-6.514 4.018,-9.978c0.666,-2.34 1.285,-4.698 1.806,-7.075c0.423,-1.933 0.67,-3.904 0.994,-5.859c0.366,-2.207 0.742,-4.412 1.092,-6.622c0.274,-1.726 0.494,-3.461 0.777,-5.186c0.241,-1.473 0.559,-2.933 0.8,-4.405c0.109,-0.664 0.463,-0.687 1.015,-0.52l0,52.915c-0.17,0.025 -0.332,0.072 -0.495,0.072c-20.281,-0.001 -40.563,-0.005 -60.844,-0.011c-0.59,0 -1.222,0.163 -1.228,-0.837c-0.005,-0.827 0.231,-1.09 1.074,-1.079c3.49,0.043 6.981,0.019 10.472,0.017c1.25,0 1.253,-0.003 1.253,-1.253c0.001,-23.974 0.001,-47.948 0.001,-71.922c0,-12.896 0,-25.792 -0.001,-38.687c0,-1.232 -0.002,-1.235 -1.245,-1.235c-3.52,-0.001 -7.04,-0.035 -10.558,0.023c-0.958,0.016 -0.983,-0.435 -0.99,-1.152c-0.006,-0.722 0.101,-1.076 0.979,-1.074c11.395,0.031 22.791,0.02 34.187,0.023c0.283,0 0.566,0.027 0.895,0.044" style="fill:#f77707;fill-rule:nonzero;"/><path d="M306.998,2.519l0,-2.126c0.312,-0.019 0.616,-0.054 0.92,-0.054c11.165,-0.003 22.331,0.009 33.496,-0.023c0.875,-0.003 0.992,0.339 0.971,1.064c-0.02,0.685 0.025,1.179 -0.964,1.163c-3.75,-0.061 -7.501,-0.005 -11.252,-0.039c-0.835,-0.008 -1.089,0.276 -1.088,1.099c0.02,31.274 -0.017,62.549 0.075,93.824c0.013,4.099 0.653,8.197 2.325,12.041c1.768,4.066 4.685,6.749 9.073,7.761c2.724,0.628 5.435,0.754 8.216,0.348c2.434,-0.356 4.788,-0.869 7.056,-1.843c2.587,-1.111 4.415,-3.011 5.782,-5.379c1.978,-3.426 3.021,-7.172 3.746,-11.044c1.013,-5.407 1.174,-10.859 1.172,-16.331c-0.006,-17.714 0.018,-35.429 -0.017,-53.144c-0.008,-4.32 -0.099,-8.645 -0.335,-12.958c-0.183,-3.362 -0.665,-6.715 -2.382,-9.714c-1.363,-2.382 -3.449,-3.854 -6.154,-4.315c-1.35,-0.229 -2.739,-0.232 -4.111,-0.327c-0.337,-0.023 -0.676,-0.003 -1.06,-0.003l0,-2.182l29.495,0c1.253,0 1.256,0 1.242,1.256c-0.002,0.281 -0.03,0.562 -0.051,0.926c-0.582,0 -1.095,-0.008 -1.608,0.001c-4.933,0.084 -8.603,2.233 -10.838,6.68c-1.401,2.787 -2.171,5.774 -2.262,8.869c-0.18,6.138 -0.272,12.28 -0.287,18.42c-0.039,14.887 0.027,29.774 -0.04,44.661c-0.017,3.939 -0.332,7.878 -0.573,11.813c-0.139,2.267 -0.266,4.549 -0.641,6.783c-0.863,5.125 -2.022,10.177 -5.506,14.298c-2.409,2.85 -5.535,4.491 -9.136,5.384c-2.995,0.742 -6.03,1.025 -9.073,0.824c-9.117,-0.602 -16.269,-4.459 -20.552,-12.836c-1.601,-3.131 -2.468,-6.483 -2.792,-9.977c-0.477,-5.139 -0.612,-10.29 -0.607,-15.452c0.023,-26.024 0.01,-52.048 0.01,-78.072c0,-1.395 0,-1.396 -1.427,-1.396c-3.26,-0.001 -6.52,0 -9.781,0l-1.042,0Z" style="fill:#f77707;fill-rule:nonzero;"/><path d="M203.561,112.583c-0.232,0.963 -0.393,2.137 -0.806,3.214c-0.539,1.406 -1.65,2.151 -3.213,2.191c-1.598,0.041 -2.755,-0.692 -3.409,-2.067c-1.12,-2.352 -1.163,-4.79 -0.062,-7.165c0.985,-2.122 3.136,-2.914 5.007,-1.923c1.093,0.578 1.655,1.601 1.964,2.73c0.247,0.904 0.326,1.854 0.519,3.02" style="fill:#f77707;fill-rule:nonzero;"/><path d="M95.385,112.719c-0.274,0.974 -0.498,2.218 -0.976,3.357c-0.582,1.387 -1.795,1.921 -3.29,1.912c-1.547,-0.009 -2.611,-0.817 -3.202,-2.111c-1.035,-2.267 -1.076,-4.635 -0.109,-6.945c0.758,-1.81 2.162,-2.636 3.925,-2.492c1.346,0.11 2.698,1.4 3.12,3.096c0.234,0.939 0.326,1.913 0.532,3.183" style="fill:#f77707;fill-rule:nonzero;"/></g><g transform="matrix(1,0,0,1,332.315,-263.307)"><text x="364.54px" y="378.059px" style="font-family:'Avenir-Light';font-size:30px;fill:#666;">61 East 11th Str<tspan x="569.29px 585.97px " y="378.059px 378.059px ">ee</tspan>t New Y<tspan x="703.84px 721.66px " y="378.059px 378.059px ">or</tspan>k, NY 10013   (212) 505</text><text x="1028.44px" y="378.059px" style="font-family:'Avenir-Light';font-size:30px;fill:#666;">-</text><text x="1038.13px" y="378.059px" style="font-family:'Avenir-Light';font-size:30px;fill:#666;">1485</text></g></g></svg>