<?xml version="1.0" encoding="utf-8"?>
<!-- Generator: Adobe Illustrator 18.0.0, SVG Export Plug-In . SVG Version: 6.00 Build 0)  -->
<!DOCTYPE svg PUBLIC "-//W3C//DTD SVG 1.1//EN" "http://www.w3.org/Graphics/SVG/1.1/DTD/svg11.dtd">
<svg version="1.1" id="Layer_1" xmlns="http://www.w3.org/2000/svg" xmlns:xlink="http://www.w3.org/1999/xlink" x="0px" y="0px"
	 viewBox="0 0 524.1 56.4" enable-background="new 0 0 524.1 56.4" xml:space="preserve">
<g>
	<path fill="#F37321" d="M288,0v0.7h6.5v53.9h-6.2v0.7h17v-0.7h-5.9V27.8h6h0.6c5,0,6.6,2.1,6.8,8.4c0,1.2,0.1,2.7,0.1,4.4l0.2,4.1
		c0.4,8.8,2.6,11.3,10.1,11.3c1.1,0,1.5-0.1,2.4-0.2l-0.1-0.6c-0.9,0.2-1.7,0.2-2.2,0.2c-3.9,0-4.8-1.7-5.4-9.5l-0.2-3l-0.1-2.8
		c-0.4-8-3.5-12-10-12.9c2.5,0,3.5-0.3,5.5-1.8c4.3-3.1,5.7-6.3,5.7-12.3c0-8.3-3.8-13.1-10.3-13.1h-0.3H288z M299.4,0.7h7.4h0.6
		c3.1,0,5.5,2.2,6.1,5.9c0.4,2,0.6,5.1,0.6,7.8c0,9.3-2.1,12.6-8.1,12.6h-0.5h-6.2V0.7z M285.4,18.4V0h-30v0.7h6.4v53.9h-6.5v0.7
		h31.1V33.8h-0.6v0.6v0.1c-0.1,3.6-0.8,7.3-2.1,11c-2.1,6.1-4.8,9-8.4,9h-0.6h-7.8V25.9h2.6h0.8c3.7,0,5.9,4.1,6.2,11.6h0.4v-25
		h-0.4v0.6c0,6.4-2.8,11.9-6.2,11.9h-0.8h-2.6V0.7h8.4h0.5c4.7,0,8.1,6.6,9.1,17.7H285.4z M253.5,0h-17.4v0.7h6V24h-16.5V0.7h6.3V0
		h-17.3v0.7h6v53.9h-6v0.7h17.3v-0.7h-6.3V24.7h16.5v29.9h-6v0.7h17.4v-0.7H247V0.7h6.5V0z M213.5,0h-29.9v22.8h0.5v-0.7
		c0-11.9,4.3-21.3,9.9-21.3h2.1v53.9h-6v0.7h17.2v-0.7h-6.4V0.7h-0.1h1.8h0.5c4.1,0.3,6.5,3.3,8.4,10c1,3.6,1.5,7.4,1.5,11v1h0.4V0z
		 M182.7,0h-15.4v0.7h0.4c4.9,0,6.8,2.7,6.8,9.7V11v28.8v1.2c0,9.6-3.3,14.3-10,14.3c-5.5,0-8.6-3.5-8.5-10.1v-0.8V0.7h6.7V0h-17.7
		v0.7h6.4v41.1v0.7c0,8.7,4.8,13.9,12.8,13.9c7.4,0,11.1-5,11.1-15.5v-0.8V11.1c0-7.7,1.8-10.3,7.4-10.4V0z M130.4,0H113v0.7h6.4
		v53.9H113v0.7h30.9V30.9h-0.4c-0.5,7.2-0.9,9-3,14.8c-2.2,6.1-5.3,9-10.1,8.9h-6.1V0.7h6.1V0z M91.1,0H79.8L71,42.8L62.2,0H49.9
		v0.7h1.8c3.6,0.1,5,1.7,5,5.5v0.6v39.7v0.7c0,4.6-1.8,7.4-4.9,7.4H50v0.7h14.3v-0.7h-1c-4.1,0-5.9-2.2-5.9-7.4v-0.7V2l11.2,53.4
		h0.6L80.3,2.2v52.4h-6.1v0.7h17v-0.7h-6V0.7h5.9V0z M38.9,0H21.6v0.7h6V24H11V0.7h6.3V0H0v0.7h6v53.9H0v0.7h17.3v-0.7H11V24.7h16.5
		v29.9h-6v0.7h17.4v-0.7h-6.5V0.7h6.5V0z"/>
	<path fill="#F37321" d="M43.7,55.2c1.1,0,2.1-0.9,2.1-1.9s-0.9-1.9-2.1-1.9s-2.1,0.9-2.1,1.9S42.6,55.2,43.7,55.2"/>
	<path fill="#F37321" d="M96.1,55.2c1.1,0,2.1-0.9,2.1-1.9s-0.9-1.9-2.1-1.9c-1.1,0-2.1,0.9-2.1,1.9S94.9,55.2,96.1,55.2"/>
</g>
<g>
	<path fill="#646565" d="M347.5,30.3h-1.3V18.8h-4.3v-1.2h9.8v1.2h-4.3V30.3z"/>
	<path fill="#646565" d="M353.7,17.6h1.3v5.5h6.9v-5.5h1.3v12.7H362v-6H355v6h-1.3V17.6z"/>
	<path fill="#646565" d="M368,29.1h6.8v1.2h-8.1V17.6h7.9v1.2H368v4.3h6.2v1.2H368V29.1z"/>
	<path fill="#646565" d="M392.9,28.3c-0.2,0.3-0.5,0.6-0.8,0.9c-0.3,0.3-0.7,0.5-1.1,0.7s-0.8,0.4-1.3,0.5c-0.5,0.1-1,0.2-1.5,0.2
		c-0.9,0-1.8-0.2-2.6-0.5c-0.8-0.3-1.5-0.8-2.1-1.4c-0.6-0.6-1.1-1.3-1.4-2.1c-0.3-0.8-0.5-1.7-0.5-2.7s0.2-1.9,0.5-2.7
		c0.3-0.8,0.8-1.5,1.4-2.1c0.6-0.6,1.3-1.1,2.1-1.4c0.8-0.3,1.7-0.5,2.6-0.5c0.8,0,1.6,0.2,2.4,0.5c0.8,0.3,1.5,0.8,2,1.5l-1.1,0.8
		c-0.1-0.2-0.3-0.4-0.5-0.6s-0.5-0.4-0.8-0.5c-0.3-0.2-0.6-0.3-0.9-0.4c-0.3-0.1-0.7-0.1-1-0.1c-0.8,0-1.5,0.1-2.2,0.4
		c-0.6,0.3-1.2,0.7-1.6,1.2c-0.5,0.5-0.8,1.1-1,1.8c-0.2,0.7-0.4,1.4-0.4,2.1s0.1,1.4,0.4,2.1c0.2,0.7,0.6,1.3,1,1.8
		c0.4,0.5,1,0.9,1.6,1.2c0.6,0.3,1.4,0.5,2.2,0.5c0.3,0,0.7,0,1-0.1c0.3-0.1,0.7-0.2,1-0.3c0.3-0.1,0.6-0.3,0.9-0.6
		c0.3-0.2,0.5-0.6,0.8-0.9L392.9,28.3z"/>
	<path fill="#646565" d="M394.9,30.3h-1.5l5.5-12.7h1.3l5.5,12.7h-1.5l-1.4-3.3h-6.5L394.9,30.3z M396.8,25.8h5.5l-2.8-6.7
		L396.8,25.8z"/>
	<path fill="#646565" d="M408.7,30.3h-1.3V17.6h3.9c1.3,0,2.3,0.3,3.1,0.8c0.7,0.6,1.1,1.4,1.1,2.6c0,0.9-0.3,1.6-0.8,2.2
		c-0.6,0.6-1.4,1-2.4,1.1l3.7,6h-1.6l-3.5-5.9h-2.2V30.3z M408.7,23.2h2.3c0.6,0,1.1-0.1,1.5-0.2c0.4-0.1,0.7-0.3,1-0.5
		c0.2-0.2,0.4-0.4,0.5-0.7c0.1-0.3,0.2-0.6,0.2-0.9c0-0.3-0.1-0.6-0.2-0.9s-0.3-0.5-0.5-0.7c-0.2-0.2-0.6-0.4-1-0.5
		c-0.4-0.1-0.9-0.2-1.5-0.2h-2.3V23.2z"/>
	<path fill="#646565" d="M419.4,29.1h5.9v1.2h-7.2V17.6h1.3V29.1z"/>
	<path fill="#646565" d="M429.4,30.3h-1.3v-5.5l-4.8-7.3h1.6l3.8,6l3.8-6h1.6l-4.8,7.3V30.3z"/>
	<path fill="#646565" d="M437,29.1h5.9v1.2h-7.2V17.6h1.3V29.1z"/>
	<path fill="#646565" d="M446,29.1h6.8v1.2h-8.1V17.6h7.9v1.2H446v4.3h6.2v1.2H446V29.1z"/>
	<path fill="#646565" d="M352.8,44.9c-0.4-0.5-0.9-0.8-1.5-1.1c-0.6-0.3-1.3-0.4-2.1-0.4c-0.8,0-1.5,0.1-2.2,0.4
		c-0.6,0.3-1.2,0.7-1.6,1.2c-0.5,0.5-0.8,1.1-1,1.8c-0.2,0.7-0.4,1.4-0.4,2.1s0.1,1.4,0.4,2.1s0.6,1.3,1,1.8c0.4,0.5,1,0.9,1.6,1.2
		c0.6,0.3,1.4,0.5,2.2,0.5c0.7,0,1.3-0.1,1.9-0.2c0.6-0.2,1.1-0.4,1.6-0.7v-4.3h-3v-1.2h4.3v6.2c-0.7,0.4-1.5,0.7-2.4,1
		c-0.9,0.2-1.7,0.3-2.5,0.3c-0.9,0-1.8-0.2-2.6-0.5c-0.8-0.3-1.5-0.8-2.1-1.4c-0.6-0.6-1.1-1.3-1.4-2.1s-0.5-1.7-0.5-2.7
		s0.2-1.9,0.5-2.7c0.3-0.8,0.8-1.5,1.4-2.1c0.6-0.6,1.3-1.1,2.1-1.4s1.7-0.5,2.6-0.5c1,0,1.9,0.1,2.6,0.4c0.7,0.3,1.4,0.7,2,1.3
		L352.8,44.9z"/>
	<path fill="#646565" d="M358.7,55.3h-1.3V42.6h3.9c1.3,0,2.3,0.3,3.1,0.8c0.7,0.6,1.1,1.4,1.1,2.6c0,0.9-0.3,1.6-0.8,2.2
		c-0.6,0.6-1.4,1-2.4,1.1l3.7,6h-1.6l-3.5-5.9h-2.2V55.3z M358.7,48.2h2.3c0.6,0,1.1-0.1,1.5-0.2c0.4-0.1,0.7-0.3,1-0.5
		c0.2-0.2,0.4-0.4,0.5-0.7c0.1-0.3,0.2-0.6,0.2-0.9c0-0.3-0.1-0.6-0.2-0.9c-0.1-0.3-0.3-0.5-0.5-0.7c-0.2-0.2-0.6-0.4-1-0.5
		c-0.4-0.1-0.9-0.2-1.5-0.2h-2.3V48.2z"/>
	<path fill="#646565" d="M369.4,54.1h6.8v1.2h-8.1V42.6h7.9v1.2h-6.6v4.3h6.2v1.2h-6.2V54.1z"/>
	<path fill="#646565" d="M380.1,54.1h6.8v1.2h-8.1V42.6h7.9v1.2h-6.6v4.3h6.2v1.2h-6.2V54.1z"/>
	<path fill="#646565" d="M398.6,53.4L398.6,53.4l0-10.8h1.3v12.7h-1.6l-7.6-10.9h0v10.9h-1.3V42.6h1.6L398.6,53.4z"/>
	<path fill="#646565" d="M406.2,53.5L406.2,53.5l3.2-10.9h1.5l3.2,10.9h0l3-10.9h1.4l-3.8,12.7h-1.5l-3.2-10.9h0L407,55.3h-1.5
		l-3.8-12.7h1.4L406.2,53.5z"/>
	<path fill="#646565" d="M421.7,55.3h-1.3V42.6h1.3V55.3z"/>
	<path fill="#646565" d="M435.7,53.3c-0.2,0.3-0.5,0.6-0.8,0.9c-0.3,0.3-0.7,0.5-1.1,0.7s-0.8,0.4-1.3,0.5c-0.5,0.1-1,0.2-1.5,0.2
		c-0.9,0-1.8-0.2-2.6-0.5c-0.8-0.3-1.5-0.8-2.1-1.4c-0.6-0.6-1.1-1.3-1.4-2.1c-0.3-0.8-0.5-1.7-0.5-2.7s0.2-1.9,0.5-2.7
		c0.3-0.8,0.8-1.5,1.4-2.1c0.6-0.6,1.3-1.1,2.1-1.4c0.8-0.3,1.7-0.5,2.6-0.5c0.8,0,1.6,0.2,2.4,0.5c0.8,0.3,1.5,0.8,2,1.5l-1.1,0.8
		c-0.1-0.2-0.3-0.4-0.5-0.6s-0.5-0.4-0.8-0.5c-0.3-0.2-0.6-0.3-0.9-0.4c-0.3-0.1-0.7-0.1-1-0.1c-0.8,0-1.5,0.1-2.2,0.4
		c-0.6,0.3-1.2,0.7-1.6,1.2c-0.5,0.5-0.8,1.1-1,1.8c-0.2,0.7-0.4,1.4-0.4,2.1s0.1,1.4,0.4,2.1c0.2,0.7,0.6,1.3,1,1.8
		c0.4,0.5,1,0.9,1.6,1.2c0.6,0.3,1.4,0.5,2.2,0.5c0.3,0,0.7,0,1-0.1c0.3-0.1,0.7-0.2,1-0.3c0.3-0.1,0.6-0.3,0.9-0.6
		c0.3-0.2,0.5-0.6,0.8-0.9L435.7,53.3z"/>
	<path fill="#646565" d="M437.8,42.6h1.3v5.5h6.9v-5.5h1.3v12.7h-1.3v-6h-6.9v6h-1.3V42.6z"/>
	<path fill="#646565" d="M459.6,53.4L459.6,53.4l4.2-10.8h1.4l-5,12.7h-1.3l-4.8-12.7h1.4L459.6,53.4z"/>
	<path fill="#646565" d="M468.1,55.3h-1.3V42.6h1.3V55.3z"/>
	<path fill="#646565" d="M472.9,54.1h5.9v1.2h-7.2V42.6h1.3V54.1z"/>
	<path fill="#646565" d="M481.9,54.1h5.9v1.2h-7.2V42.6h1.3V54.1z"/>
	<path fill="#646565" d="M489.4,55.3h-1.5l5.5-12.7h1.3l5.5,12.7h-1.5l-1.4-3.3h-6.5L489.4,55.3z M491.3,50.8h5.5l-2.8-6.7
		L491.3,50.8z"/>
	<path fill="#646565" d="M511.4,44.9c-0.4-0.5-0.9-0.8-1.5-1.1s-1.3-0.4-2.1-0.4c-0.8,0-1.5,0.1-2.2,0.4c-0.6,0.3-1.2,0.7-1.6,1.2
		s-0.8,1.1-1,1.8c-0.2,0.7-0.4,1.4-0.4,2.1s0.1,1.4,0.4,2.1c0.2,0.7,0.6,1.3,1,1.8s1,0.9,1.6,1.2c0.6,0.3,1.4,0.5,2.2,0.5
		c0.7,0,1.3-0.1,1.9-0.2c0.6-0.2,1.1-0.4,1.6-0.7v-4.3h-3v-1.2h4.3v6.2c-0.7,0.4-1.5,0.7-2.4,1c-0.9,0.2-1.7,0.3-2.5,0.3
		c-0.9,0-1.8-0.2-2.6-0.5c-0.8-0.3-1.5-0.8-2.1-1.4c-0.6-0.6-1.1-1.3-1.4-2.1c-0.3-0.8-0.5-1.7-0.5-2.7s0.2-1.9,0.5-2.7
		c0.3-0.8,0.8-1.5,1.4-2.1c0.6-0.6,1.3-1.1,2.1-1.4s1.7-0.5,2.6-0.5c1,0,1.9,0.1,2.6,0.4c0.7,0.3,1.4,0.7,2,1.3L511.4,44.9z"/>
	<path fill="#646565" d="M517.2,54.1h6.8v1.2H516V42.6h7.9v1.2h-6.6v4.3h6.2v1.2h-6.2V54.1z"/>
</g>
</svg>
