<?xml version="1.0" encoding="utf-8"?>
<!-- Generator: Adobe Illustrator 18.0.0, SVG Export Plug-In . SVG Version: 6.00 Build 0)  -->
<!DOCTYPE svg PUBLIC "-//W3C//DTD SVG 1.1//EN" "http://www.w3.org/Graphics/SVG/1.1/DTD/svg11.dtd">
<svg version="1.1" id="Layer_1" xmlns="http://www.w3.org/2000/svg" xmlns:xlink="http://www.w3.org/1999/xlink" x="0px" y="0px"
	 viewBox="0 0 150 150" style="enable-background:new 0 0 150 150;" xml:space="preserve">
<style type="text/css">
	.st0{fill:#F27521;}
	.st1{fill:#FFFFFF;}
</style>
<circle class="st0" cx="75" cy="75" r="75"/>
<g>
	<path class="st1" d="M35.9,79c0,3.1-1.1,5.5-3.3,7.3S27.2,89,23.3,89c-3.7,0-6.9-0.7-9.7-2.1v-6.8c2.3,1,4.3,1.8,5.9,2.2
		s3.1,0.6,4.4,0.6c1.6,0,2.8-0.3,3.7-0.9s1.3-1.5,1.3-2.7c0-0.7-0.2-1.3-0.6-1.8s-0.9-1-1.7-1.5s-2.2-1.3-4.4-2.3
		c-2.1-1-3.7-1.9-4.7-2.8s-1.9-2-2.5-3.2S14,65.1,14,63.5c0-3,1-5.4,3.1-7.1s4.9-2.6,8.5-2.6c1.8,0,3.5,0.2,5.1,0.6s3.3,1,5.1,1.8
		l-2.3,5.6c-1.8-0.8-3.3-1.3-4.5-1.6s-2.4-0.4-3.5-0.4c-1.4,0-2.4,0.3-3.2,1s-1.1,1.5-1.1,2.5c0,0.6,0.1,1.2,0.4,1.7
		s0.8,0.9,1.4,1.4s2.2,1.2,4.6,2.4c3.2,1.5,5.4,3.1,6.6,4.6S35.9,76.8,35.9,79z"/>
	<path class="st1" d="M73.2,71.4c0,5.7-1.4,10-4.2,13.1S62.1,89,56.9,89s-9.3-1.5-12.1-4.6s-4.2-7.4-4.2-13.1s1.4-10.1,4.2-13.1
		s6.9-4.5,12.1-4.5s9.3,1.5,12.1,4.5S73.2,65.7,73.2,71.4z M48.2,71.4c0,3.8,0.7,6.7,2.2,8.6s3.6,2.9,6.5,2.9
		c5.8,0,8.7-3.9,8.7-11.6c0-7.7-2.9-11.6-8.6-11.6c-2.9,0-5.1,1-6.5,2.9S48.2,67.5,48.2,71.4z"/>
	<path class="st1" d="M80.3,88.5V54.3h7.3v28.3h13.9v6H80.3z"/>
	<path class="st1" d="M135.9,71.1c0,5.6-1.6,10-4.8,13s-7.8,4.5-13.9,4.5h-9.7V54.3h10.8c5.6,0,9.9,1.5,13,4.4
		S135.9,65.8,135.9,71.1z M128.3,71.3c0-7.4-3.2-11-9.8-11h-3.9v22.3h3.1C124.8,82.5,128.3,78.8,128.3,71.3z"/>
</g>
</svg>
