<?xml version="1.0" encoding="utf-8"?>
<!-- Generator: Adobe Illustrator 18.0.0, SVG Export Plug-In . SVG Version: 6.00 Build 0)  -->
<!DOCTYPE svg PUBLIC "-//W3C//DTD SVG 1.1//EN" "http://www.w3.org/Graphics/SVG/1.1/DTD/svg11.dtd">
<svg version="1.1" id="Layer_1" xmlns="http://www.w3.org/2000/svg" xmlns:xlink="http://www.w3.org/1999/xlink" x="0px" y="0px"
	 viewBox="0 0 869 500" enable-background="new 0 0 869 500" xml:space="preserve">
<rect fill="#F1F2F2" width="869" height="500"/>
<g>
	<path fill="#6D6E71" d="M240.2,260.3l-2.5-9.1c-0.3-1-0.9-3.2-1.7-6.7h-0.2c-0.7,3.2-1.2,5.4-1.6,6.7l-2.6,9h-4.6l-5.4-19.4h4.2
		l2.5,9.6c0.6,2.4,1,4.4,1.2,6.1h0.1c0.1-0.9,0.3-1.8,0.5-2.9s0.4-1.9,0.6-2.5l3-10.2h4.5l2.9,10.2c0.2,0.6,0.4,1.5,0.7,2.6
		s0.4,2.1,0.5,2.8h0.1c0.2-1.4,0.6-3.5,1.2-6l2.5-9.6h4.1l-5.5,19.4H240.2z"/>
	<path fill="#6D6E71" d="M262.1,260.7c-3,0-5.4-0.9-7.1-2.6s-2.6-4.2-2.6-7.3c0-3.2,0.8-5.7,2.4-7.5s3.8-2.7,6.5-2.7
		c2.6,0,4.6,0.8,6.1,2.3s2.2,3.7,2.2,6.4v2.2h-13c0.1,1.9,0.6,3.3,1.5,4.4s2.3,1.5,4.1,1.5c1.1,0,2.2-0.1,3.2-0.3s2.1-0.6,3.2-1.1
		v3.4c-1,0.5-2,0.8-3.1,1S263.4,260.7,262.1,260.7z M261.4,243.7c-1.3,0-2.4,0.4-3.2,1.2s-1.3,2-1.4,3.6h8.8c0-1.6-0.4-2.8-1.2-3.6
		S262.7,243.7,261.4,243.7z"/>
	<path fill="#6D6E71" d="M284.3,240.6c2.4,0,4.3,0.9,5.7,2.6s2,4.2,2,7.4c0,3.2-0.7,5.7-2.1,7.4s-3.3,2.7-5.7,2.7
		c-2.5,0-4.4-0.9-5.7-2.7h-0.3l-0.8,2.3h-3.1V233h4.1v6.5c0,0.5,0,1.2-0.1,2.1s-0.1,1.6-0.1,1.8h0.2
		C279.8,241.5,281.7,240.6,284.3,240.6z M283.2,243.9c-1.7,0-2.9,0.5-3.6,1.5s-1.1,2.6-1.1,4.9v0.3c0,2.4,0.4,4.1,1.1,5.1
		s2,1.6,3.7,1.6c1.5,0,2.6-0.6,3.3-1.7s1.1-2.8,1.1-5C287.8,246.1,286.3,243.9,283.2,243.9z"/>
	<path fill="#6D6E71" d="M304.6,260.7c-2.9,0-5.2-0.9-6.7-2.6s-2.3-4.2-2.3-7.4c0-3.3,0.8-5.8,2.4-7.5s3.9-2.6,6.9-2.6
		c2.1,0,3.9,0.4,5.5,1.1l-1.2,3.3c-1.7-0.7-3.2-1-4.3-1c-3.4,0-5,2.2-5,6.7c0,2.2,0.4,3.8,1.3,4.9s2.1,1.6,3.7,1.6
		c1.8,0,3.6-0.5,5.2-1.4v3.6c-0.7,0.4-1.5,0.7-2.4,0.9S305.8,260.7,304.6,260.7z"/>
	<path fill="#6D6E71" d="M331.9,250.6c0,3.2-0.8,5.7-2.4,7.4s-3.9,2.7-6.8,2.7c-1.8,0-3.4-0.4-4.8-1.2s-2.5-2-3.2-3.5
		s-1.1-3.3-1.1-5.3c0-3.2,0.8-5.6,2.4-7.4s3.9-2.7,6.8-2.7c2.8,0,5,0.9,6.7,2.7S331.9,247.5,331.9,250.6z M317.7,250.6
		c0,4.5,1.7,6.7,5,6.7c3.3,0,4.9-2.2,4.9-6.7c0-4.4-1.7-6.7-5-6.7c-1.7,0-3,0.6-3.8,1.7S317.7,248.4,317.7,250.6z"/>
	<path fill="#6D6E71" d="M353,260.3h-4.1v-12c0-1.5-0.3-2.6-0.8-3.3s-1.4-1.1-2.6-1.1c-1.6,0-2.8,0.5-3.5,1.6s-1.1,2.8-1.1,5.2v9.7
		h-4.1v-19.4h3.2l0.6,2.5h0.2c0.5-0.9,1.3-1.6,2.3-2.1s2.2-0.8,3.4-0.8c3,0,5,1,5.9,3.1h0.3c0.6-1,1.4-1.7,2.4-2.2s2.2-0.8,3.6-0.8
		c2.3,0,4,0.6,5.1,1.8s1.6,3,1.6,5.4v12.7h-4.1v-12c0-1.5-0.3-2.6-0.9-3.3s-1.4-1.1-2.6-1.1c-1.6,0-2.8,0.5-3.5,1.5S353,248,353,250
		V260.3z"/>
	<path fill="#6D6E71" d="M380.9,260.7c-2.5,0-4.4-0.9-5.7-2.7h-0.2c0.2,1.6,0.2,2.6,0.2,3v8H371v-28.1h3.3c0.1,0.4,0.3,1.2,0.6,2.6
		h0.2c1.3-2,3.2-3,5.8-3c2.4,0,4.3,0.9,5.7,2.6s2,4.2,2,7.4s-0.7,5.7-2.1,7.4S383.3,260.7,380.9,260.7z M379.9,243.9
		c-1.6,0-2.8,0.5-3.6,1.4s-1.1,2.5-1.1,4.6v0.6c0,2.4,0.4,4.1,1.1,5.1s2,1.6,3.7,1.6c1.4,0,2.5-0.6,3.3-1.8s1.2-2.8,1.2-5
		c0-2.2-0.4-3.8-1.2-4.9S381.4,243.9,379.9,243.9z"/>
	<path fill="#6D6E71" d="M402.6,235.8c0-0.7,0.2-1.3,0.6-1.7s1-0.6,1.7-0.6c0.7,0,1.3,0.2,1.7,0.6s0.6,1,0.6,1.7
		c0,0.7-0.2,1.3-0.6,1.7s-1,0.6-1.7,0.6c-0.8,0-1.3-0.2-1.7-0.6S402.6,236.5,402.6,235.8z M406.9,260.3h-4.1v-19.4h4.1V260.3z"/>
	<path fill="#6D6E71" d="M429.2,260.3h-4.1v-12c0-1.5-0.3-2.6-0.8-3.3s-1.4-1.1-2.6-1.1c-1.6,0-2.8,0.5-3.5,1.6s-1.1,2.8-1.1,5.2
		v9.7h-4.1v-19.4h3.2l0.6,2.5h0.2c0.5-0.9,1.3-1.6,2.3-2.1s2.2-0.8,3.4-0.8c3,0,5,1,5.9,3.1h0.3c0.6-1,1.4-1.7,2.4-2.2
		s2.2-0.8,3.6-0.8c2.3,0,4,0.6,5.1,1.8s1.6,3,1.6,5.4v12.7h-4.1v-12c0-1.5-0.3-2.6-0.9-3.3s-1.5-1.1-2.6-1.1c-1.6,0-2.8,0.5-3.5,1.5
		s-1.1,2.5-1.1,4.6V260.3z"/>
	<path fill="#6D6E71" d="M459.4,260.3l-0.8-2.7h-0.1c-0.9,1.2-1.9,2-2.8,2.4s-2.2,0.6-3.7,0.6c-1.9,0-3.4-0.5-4.5-1.5
		s-1.6-2.5-1.6-4.4c0-2,0.7-3.5,2.2-4.5s3.8-1.6,6.8-1.7l3.4-0.1v-1c0-1.2-0.3-2.2-0.9-2.8s-1.5-0.9-2.7-0.9c-1,0-2,0.1-2.9,0.4
		s-1.8,0.6-2.6,1l-1.3-3c1.1-0.6,2.2-1,3.5-1.3s2.4-0.4,3.6-0.4c2.5,0,4.3,0.5,5.6,1.6s1.9,2.8,1.9,5.1v13.1H459.4z M453.3,257.5
		c1.5,0,2.7-0.4,3.6-1.3s1.4-2,1.4-3.5v-1.7l-2.5,0.1c-1.9,0.1-3.4,0.4-4.2,1s-1.3,1.5-1.3,2.7c0,0.9,0.3,1.5,0.8,2
		S452.3,257.5,453.3,257.5z"/>
	<path fill="#6D6E71" d="M484.6,240.9v2.3l-3.3,0.6c0.3,0.4,0.6,0.9,0.8,1.5s0.3,1.2,0.3,1.9c0,2-0.7,3.6-2.1,4.7s-3.3,1.7-5.7,1.7
		c-0.6,0-1.2,0-1.7-0.1c-0.9,0.6-1.3,1.2-1.3,1.9c0,0.4,0.2,0.8,0.6,1s1.2,0.3,2.3,0.3h3.4c2.1,0,3.8,0.5,4.9,1.4s1.7,2.2,1.7,4
		c0,2.2-0.9,3.9-2.7,5.1s-4.4,1.8-7.9,1.8c-2.6,0-4.7-0.5-6.1-1.4s-2.1-2.3-2.1-4c0-1.2,0.4-2.2,1.1-3s1.8-1.4,3.2-1.7
		c-0.6-0.2-1-0.6-1.4-1.1s-0.5-1.1-0.5-1.6c0-0.7,0.2-1.3,0.6-1.8s1-1,1.8-1.5c-1-0.4-1.8-1.1-2.5-2.1s-0.9-2.1-0.9-3.4
		c0-2.1,0.7-3.7,2-4.9s3.2-1.7,5.7-1.7c0.6,0,1.1,0,1.7,0.1s1.1,0.2,1.4,0.2H484.6z M469.3,263.4c0,0.9,0.4,1.6,1.2,2.1
		s1.9,0.7,3.4,0.7c2.2,0,3.9-0.3,5-1s1.7-1.5,1.7-2.6c0-0.8-0.3-1.4-0.9-1.8s-1.7-0.5-3.4-0.5h-3.1c-1.2,0-2.1,0.3-2.8,0.8
		S469.3,262.4,469.3,263.4z M471.1,247.2c0,1.2,0.3,2.2,0.9,2.8s1.5,1,2.7,1c2.4,0,3.6-1.3,3.6-3.8c0-1.3-0.3-2.2-0.9-2.9
		s-1.5-1-2.7-1c-1.2,0-2.1,0.3-2.7,1S471.1,245.9,471.1,247.2z"/>
	<path fill="#6D6E71" d="M496.7,260.7c-3,0-5.4-0.9-7.1-2.6s-2.6-4.2-2.6-7.3c0-3.2,0.8-5.7,2.4-7.5s3.8-2.7,6.5-2.7
		c2.6,0,4.6,0.8,6.1,2.3s2.2,3.7,2.2,6.4v2.2h-13c0.1,1.9,0.6,3.3,1.5,4.4s2.3,1.5,4.1,1.5c1.1,0,2.2-0.1,3.2-0.3s2.1-0.6,3.2-1.1
		v3.4c-1,0.5-2,0.8-3.1,1S498,260.7,496.7,260.7z M495.9,243.7c-1.3,0-2.4,0.4-3.2,1.2s-1.3,2-1.4,3.6h8.8c0-1.6-0.4-2.8-1.2-3.6
		S497.2,243.7,495.9,243.7z"/>
	<path fill="#6D6E71" d="M534.7,260.3h-4.1v-12c0-1.5-0.3-2.6-0.8-3.3s-1.4-1.1-2.6-1.1c-1.6,0-2.8,0.5-3.5,1.6s-1.1,2.8-1.1,5.2
		v9.7h-4.1v-19.4h3.2l0.6,2.5h0.2c0.5-0.9,1.3-1.6,2.3-2.1s2.2-0.8,3.4-0.8c3,0,5,1,5.9,3.1h0.3c0.6-1,1.4-1.7,2.4-2.2
		s2.2-0.8,3.6-0.8c2.3,0,4,0.6,5.1,1.8s1.6,3,1.6,5.4v12.7h-4.1v-12c0-1.5-0.3-2.6-0.9-3.3s-1.5-1.1-2.6-1.1c-1.6,0-2.8,0.5-3.5,1.5
		s-1.1,2.5-1.1,4.6V260.3z"/>
	<path fill="#6D6E71" d="M552.4,235.8c0-0.7,0.2-1.3,0.6-1.7s1-0.6,1.7-0.6c0.7,0,1.3,0.2,1.7,0.6s0.6,1,0.6,1.7
		c0,0.7-0.2,1.3-0.6,1.7s-1,0.6-1.7,0.6c-0.8,0-1.3-0.2-1.7-0.6S552.4,236.5,552.4,235.8z M556.8,260.3h-4.1v-19.4h4.1V260.3z"/>
	<path fill="#6D6E71" d="M575.8,254.8c0,1.9-0.7,3.4-2.1,4.4s-3.4,1.5-5.9,1.5c-2.6,0-4.7-0.4-6.2-1.2V256c2.3,1.1,4.4,1.6,6.4,1.6
		c2.5,0,3.8-0.8,3.8-2.3c0-0.5-0.1-0.9-0.4-1.2s-0.7-0.7-1.4-1s-1.5-0.8-2.7-1.2c-2.2-0.9-3.8-1.7-4.5-2.6s-1.2-2-1.2-3.4
		c0-1.7,0.7-3,2-3.9s3.2-1.4,5.5-1.4c2.3,0,4.4,0.5,6.5,1.4l-1.3,3.1c-2.1-0.9-3.9-1.3-5.3-1.3c-2.2,0-3.3,0.6-3.3,1.9
		c0,0.6,0.3,1.1,0.9,1.5s1.8,1,3.7,1.7c1.6,0.6,2.8,1.2,3.5,1.7s1.3,1.1,1.6,1.8S575.8,253.9,575.8,254.8z"/>
	<path fill="#6D6E71" d="M593.3,254.8c0,1.9-0.7,3.4-2.1,4.4s-3.4,1.5-5.9,1.5c-2.6,0-4.7-0.4-6.2-1.2V256c2.3,1.1,4.4,1.6,6.4,1.6
		c2.5,0,3.8-0.8,3.8-2.3c0-0.5-0.1-0.9-0.4-1.2s-0.7-0.7-1.4-1s-1.5-0.8-2.7-1.2c-2.2-0.9-3.8-1.7-4.5-2.6s-1.2-2-1.2-3.4
		c0-1.7,0.7-3,2-3.9s3.2-1.4,5.5-1.4c2.3,0,4.4,0.5,6.5,1.4l-1.3,3.1c-2.1-0.9-3.9-1.3-5.3-1.3c-2.2,0-3.3,0.6-3.3,1.9
		c0,0.6,0.3,1.1,0.9,1.5s1.8,1,3.7,1.7c1.6,0.6,2.8,1.2,3.5,1.7s1.3,1.1,1.6,1.8S593.3,253.9,593.3,254.8z"/>
	<path fill="#6D6E71" d="M597.5,235.8c0-0.7,0.2-1.3,0.6-1.7s1-0.6,1.7-0.6c0.7,0,1.3,0.2,1.7,0.6s0.6,1,0.6,1.7
		c0,0.7-0.2,1.3-0.6,1.7s-1,0.6-1.7,0.6c-0.8,0-1.3-0.2-1.7-0.6S597.5,236.5,597.5,235.8z M601.9,260.3h-4.1v-19.4h4.1V260.3z"/>
	<path fill="#6D6E71" d="M624.9,260.3h-4.1v-12c0-1.5-0.3-2.6-0.9-3.4s-1.6-1.1-2.9-1.1c-1.7,0-3,0.5-3.8,1.5s-1.2,2.8-1.2,5.2v9.7
		h-4.1v-19.4h3.2l0.6,2.5h0.2c0.6-0.9,1.4-1.6,2.5-2.1s2.3-0.8,3.6-0.8c4.7,0,7,2.4,7,7.1V260.3z"/>
	<path fill="#6D6E71" d="M647.1,240.9v2.3l-3.3,0.6c0.3,0.4,0.6,0.9,0.8,1.5s0.3,1.2,0.3,1.9c0,2-0.7,3.6-2.1,4.7s-3.3,1.7-5.7,1.7
		c-0.6,0-1.2,0-1.7-0.1c-0.9,0.6-1.3,1.2-1.3,1.9c0,0.4,0.2,0.8,0.6,1s1.2,0.3,2.3,0.3h3.4c2.1,0,3.8,0.5,4.9,1.4s1.7,2.2,1.7,4
		c0,2.2-0.9,3.9-2.7,5.1s-4.4,1.8-7.9,1.8c-2.6,0-4.7-0.5-6.1-1.4s-2.1-2.3-2.1-4c0-1.2,0.4-2.2,1.1-3s1.8-1.4,3.2-1.7
		c-0.6-0.2-1-0.6-1.4-1.1s-0.5-1.1-0.5-1.6c0-0.7,0.2-1.3,0.6-1.8s1-1,1.8-1.5c-1-0.4-1.8-1.1-2.5-2.1s-0.9-2.1-0.9-3.4
		c0-2.1,0.7-3.7,2-4.9s3.2-1.7,5.7-1.7c0.6,0,1.1,0,1.7,0.1s1.1,0.2,1.4,0.2H647.1z M631.8,263.4c0,0.9,0.4,1.6,1.2,2.1
		s1.9,0.7,3.4,0.7c2.2,0,3.9-0.3,5-1s1.7-1.5,1.7-2.6c0-0.8-0.3-1.4-0.9-1.8s-1.7-0.5-3.4-0.5h-3.1c-1.2,0-2.1,0.3-2.8,0.8
		S631.8,262.4,631.8,263.4z M633.6,247.2c0,1.2,0.3,2.2,0.9,2.8s1.5,1,2.7,1c2.4,0,3.6-1.3,3.6-3.8c0-1.3-0.3-2.2-0.9-2.9
		s-1.5-1-2.7-1c-1.2,0-2.1,0.3-2.7,1S633.6,245.9,633.6,247.2z"/>
</g>
</svg>
